<?xml version="1.0" encoding="UTF-8"?>
<svg xmlns="http://www.w3.org/2000/svg" xmlns:xlink="http://www.w3.org/1999/xlink" version="1.2" >
<font id="CPCompany-Bold">
<font-face  font-family="CPCompany" units-per-em="2048" ascent="1507" descent="-453" font-style="normal" font-weight="700" font-stretch="normal" cap-height="1276" x-height="1055" underline-position="-70" underline-thickness="73" />
<missing-glyph  horiz-adv-x="547" d="" />
<glyph glyph-name="NULL" d="" />
<glyph glyph-name="nonmarkingreturn" unicode="&#xd;" horiz-adv-x="547" d="" />
<glyph glyph-name="space" unicode="&#x20;" horiz-adv-x="547" d="" />
<glyph glyph-name="ampersand" unicode="&#x26;" horiz-adv-x="1667" d="M596 860 Q547 860 507 841 Q467 822 439 788.5 Q411 755 396 709 Q381 663 381 608 L381 545 Q514 584 586 643 Q673 716 723 860 L596 860 Z M1362 506 L1362 465 Q1362 260 1200 129 Q1050 0 840 0 L598 0 Q388 0 244 152 Q102 303 102 502 L102 598 Q102 797 244 936 Q384 1073 596 1073 Q644 1073 692.5 1065.5 Q741 1058 791 1042 L860 1276 L1106 1276 L926 745 Q865 568 723 475 Q678 446 601.5 416 Q525 386 416 354 Q461 238 598 238 L840 238 Q946 238 1012 295 Q1081 352 1081 455 L1081 506 L961 506 L961 729 L1604 729 L1604 506 L1362 506 Z " />
<glyph glyph-name="quotesingle" unicode="&#x27;" horiz-adv-x="492" d="M129 983 L129 1507 L362 1507 L362 983 L129 983 Z " />
<glyph glyph-name="parenleft" unicode="&#x28;" horiz-adv-x="739" d="M487 -356 Q129 83 129 596 Q129 1111 487 1550 L637 1430 Q478 1233 398.5 1026.5 Q319 820 319 596 Q319 372 398.5 165.5 Q478 -41 637 -236 L487 -356 Z " />
<glyph glyph-name="parenright" unicode="&#x29;" horiz-adv-x="739" d="M610 596 Q610 338 521.5 101.5 Q433 -135 252 -356 L102 -236 Q261 -41 340.5 165.5 Q420 372 420 596 Q420 820 340.5 1026.5 Q261 1233 102 1430 L252 1550 Q433 1329 521.5 1091.5 Q610 854 610 596 Z " />
<glyph glyph-name="asterisk" unicode="&#x2a;" horiz-adv-x="1081" d="M707 842 L836 641 L694 537 L541 770 L387 537 L246 643 L377 842 L113 842 L113 1024 L377 1024 L246 1225 L387 1331 L541 1098 L694 1331 L836 1225 L707 1024 L969 1024 L969 842 L707 842 Z " />
<glyph glyph-name="plus" unicode="&#x2b;" horiz-adv-x="1315" d="M780 406 L780 0 L535 0 L535 406 L129 406 L129 653 L535 653 L535 1059 L780 1059 L780 653 L1188 653 L1188 406 L780 406 Z " />
<glyph glyph-name="comma" unicode="&#x2c;" horiz-adv-x="551" d="M449 166 Q449 13 362 -86 Q328 -126 270.5 -169 Q213 -212 129 -258 L12 -53 Q132 15 166 47 Q205 89 205 166 L205 319 L449 319 L449 166 L449 166 Z " />
<glyph glyph-name="hyphen" unicode="&#x2d;" horiz-adv-x="786" d="M102 424 L102 672 L684 672 L684 424 L102 424 Z " />
<glyph glyph-name="period" unicode="&#x2e;" horiz-adv-x="467" d="M78 27 L78 348 L389 348 L389 27 L78 27 Z " />
<glyph glyph-name="slash" unicode="&#x2f;" horiz-adv-x="944" d="M264 0 L27 0 L680 1276 L918 1276 L264 0 Z " />
<glyph glyph-name="zero" unicode="0" horiz-adv-x="1229" d="M817 815 Q817 931 762.5 995 Q708 1059 614 1059 Q520 1059 466 995 Q412 931 412 815 L412 459 Q412 403 426 357.5 Q440 312 466 280.5 Q492 249 529.5 232 Q567 215 614 215 Q661 215 698.5 232 Q736 249 762.5 280.5 Q789 312 803 357.5 Q817 403 817 459 L817 815 Z M1116 477 Q1116 269 987 131 Q850 -18 614 -18 Q382 -18 242 131 Q113 269 113 477 L113 797 Q113 1004 242 1145 Q382 1294 614 1294 Q850 1294 987 1145 Q1116 1004 1116 797 L1116 477 L1116 477 Z " />
<glyph glyph-name="one" unicode="1" horiz-adv-x="1229" d="M137 0 L137 238 L510 238 L510 1038 L135 1038 L135 1276 L807 1276 L807 238 L1094 238 L1094 0 L137 0 Z " />
<glyph glyph-name="two" unicode="2" horiz-adv-x="1229" d="M1104 893 Q1104 732 985 623 Q857 504 641 504 L580 504 Q547 504 518.5 490.5 Q490 477 469 454.5 Q448 432 436 403 Q424 374 424 342 L424 238 L1096 238 L1096 0 L127 0 L127 342 Q127 516 242 631 Q362 748 553 748 L614 748 Q708 748 762 788 Q811 828 811 889 Q811 960 750 1006 Q716 1032 668.5 1045.5 Q621 1059 561 1059 Q386 1059 211 971 L143 1180 Q255 1237 372 1265.5 Q489 1294 614 1294 Q821 1294 952 1202 Q1104 1094 1104 893 Z " />
<glyph glyph-name="three" unicode="3" horiz-adv-x="1229" d="M1110 412 Q1110 240 981 117 Q837 -18 592 -18 Q343 -18 119 96 L188 301 Q365 215 537 215 Q670 215 745 281 Q811 336 811 416 Q811 498 754 549 Q689 608 559 608 L367 608 L367 770 L666 1032 L178 1032 L178 1276 L1051 1276 L1051 1085 L778 811 Q935 774 1024 659 Q1110 552 1110 412 Z " />
<glyph glyph-name="four" unicode="4" horiz-adv-x="1229" d="M696 915 L344 496 L344 438 L696 438 L696 915 Z M995 203 L995 0 L696 0 L696 203 L88 203 L88 543 L709 1276 L995 1276 L995 438 L1141 438 L1141 203 L995 203 Z " />
<glyph glyph-name="five" unicode="5" horiz-adv-x="1229" d="M1110 430 Q1110 248 983 121 Q841 -18 592 -18 Q343 -18 119 96 L188 307 Q370 215 537 215 Q669 215 745 279 Q811 334 811 416 Q811 495 756 547 Q691 606 586 606 L166 606 L166 1276 L1030 1276 L1030 1030 L463 1030 L463 846 L647 846 Q867 846 993 717 Q1110 600 1110 430 Z " />
<glyph glyph-name="six" unicode="6" horiz-adv-x="1229" d="M823 418 Q823 616 621 616 Q406 616 406 418 Q406 215 621 215 Q823 215 823 418 Z M1122 401 Q1122 198 983 86 Q851 -16 621 -16 Q415 -16 268 94 Q106 220 106 426 L106 823 Q106 942 144.5 1031.5 Q183 1121 260 1184 Q399 1294 614 1294 Q736 1294 851 1265.5 Q966 1237 1077 1180 L1006 971 Q918 1016 834 1037.5 Q750 1059 672 1059 Q613 1059 566.5 1047 Q520 1035 485 1012 Q406 957 406 850 L406 737 Q498 821 659 821 Q867 821 991 717 Q1122 604 1122 401 Z " />
<glyph glyph-name="seven" unicode="7" horiz-adv-x="1229" d="M596 0 L291 0 L793 1032 L379 1032 L379 829 L100 829 L100 1276 L1128 1276 L1128 1094 L596 0 Z " />
<glyph glyph-name="eight" unicode="8" horiz-adv-x="1229" d="M823 387 Q823 549 614 549 Q406 549 406 387 Q406 215 614 215 Q823 215 823 387 Z M805 897 Q805 1059 614 1059 Q426 1059 426 897 Q426 735 614 735 Q805 735 805 897 Z M1122 383 Q1122 176 971 72 Q905 27 816 5.5 Q727 -16 614 -16 Q502 -16 413 5.5 Q324 27 258 72 Q106 177 106 383 Q106 477 162 557 Q191 597 223.5 621 Q256 645 293 653 Q232 675 180 745 Q127 824 127 907 Q127 1100 268 1200 Q333 1248 419 1271 Q505 1294 614 1294 Q724 1294 809.5 1271 Q895 1248 961 1200 Q1102 1100 1102 907 Q1102 865 1088.5 824.5 Q1075 784 1049 745 Q997 675 936 653 Q1008 638 1065 557 Q1094 517 1108 474 Q1122 431 1122 383 Z " />
<glyph glyph-name="nine" unicode="9" horiz-adv-x="1229" d="M823 858 Q823 1061 608 1061 Q406 1061 406 858 Q406 659 608 659 Q823 659 823 858 Z M1122 453 Q1122 218 969 92 Q831 -16 614 -16 Q493 -16 378 11.5 Q263 39 152 96 L223 305 Q311 260 395 238.5 Q479 217 557 217 Q672 217 743 264 Q823 319 823 426 L823 539 Q732 455 569 455 Q358 455 238 559 Q106 673 106 874 Q106 978 141.5 1056 Q177 1134 246 1190 Q377 1294 608 1294 Q813 1294 961 1182 Q1122 1057 1122 852 L1122 453 L1122 453 Z " />
<glyph glyph-name="colon" unicode="&#x3a;" horiz-adv-x="467" d="M78 27 L78 348 L389 348 L389 27 L78 27 Z M78 735 L78 1059 L389 1059 L389 735 L78 735 Z " />
<glyph glyph-name="semicolon" unicode="&#x3b;" horiz-adv-x="557" d="M449 166 Q449 13 362 -86 Q328 -126 270.5 -169 Q213 -212 129 -258 L12 -53 Q132 15 166 47 Q205 89 205 166 L205 319 L449 319 L449 166 L449 166 Z M166 735 L166 1059 L479 1059 L479 735 L166 735 Z " />
<glyph glyph-name="less" unicode="&#x3c;" horiz-adv-x="1227" d="M102 487 L102 641 L1098 1149 L1098 938 L373 563 L1098 193 L1098 -16 L102 487 Z " />
<glyph glyph-name="equal" unicode="&#x3d;" horiz-adv-x="1360" d="M129 340 L129 563 L1233 563 L1233 340 L129 340 Z M129 725 L129 948 L1233 948 L1233 725 L129 725 Z " />
<glyph glyph-name="greater" unicode="&#x3e;" horiz-adv-x="1227" d="M129 -16 L129 193 L854 563 L129 938 L129 1149 L1122 641 L1122 487 L129 -16 Z " />
<glyph glyph-name="question" unicode="&#x3f;" horiz-adv-x="1139" d="M315 27 L315 348 L629 348 L629 27 L315 27 Z M1036 903 Q1036 743 920 629 Q792 504 575 504 L324 504 L324 748 L549 748 Q641 748 694 795 Q743 834 743 897 Q743 969 682 1012 Q650 1035 602.5 1047 Q555 1059 494 1059 Q318 1059 143 971 L78 1180 Q189 1237 306.5 1265.5 Q424 1294 549 1294 Q654 1294 738 1272.5 Q822 1251 887 1206 Q962 1155 999 1079 Q1036 1003 1036 903 Z " />
<glyph glyph-name="at" unicode="&#x40;" horiz-adv-x="1780" d="M1303 463 L1122 463 Q958 463 958 340 Q958 211 1096 211 Q1199 211 1255 260 Q1303 302 1303 346 L1303 463 Z M1303 0 L1303 90 Q1201 -18 1032 -18 Q879 -18 772 68 Q659 162 659 319 Q659 637 1047 637 L1303 637 L1303 672 Q1303 777 1219 817 Q1190 831 1146 838.5 Q1102 846 1042 846 L727 846 Q674 846 628.5 826.5 Q583 807 549 774 Q515 741 496 696.5 Q477 652 477 602 L477 14 Q477 -35 495.5 -76.5 Q514 -118 549 -154 Q620 -225 727 -225 L1104 -225 L1104 -455 L727 -455 Q498 -455 338 -309 Q178 -165 178 41 L178 575 Q178 783 338 928 Q498 1073 727 1073 L1110 1073 Q1312 1073 1452 965 Q1599 848 1599 659 L1599 0 L1303 0 Z " />
<glyph glyph-name="A" unicode="A" horiz-adv-x="1321" d="M666 991 L500 489 L831 489 L666 991 Z M993 0 L905 268 L426 268 L338 0 L27 0 L506 1276 L825 1276 L1294 0 L993 0 Z " />
<glyph glyph-name="B" unicode="B" horiz-adv-x="1284" d="M897 383 Q897 449 858 494 Q814 543 748 543 L451 543 L451 238 L754 238 Q782 238 808 249.5 Q834 261 853.5 280.5 Q873 300 885 326.5 Q897 353 897 383 Z M856 913 Q856 969 820 1003.5 Q784 1038 721 1038 L451 1038 L451 780 L717 780 Q856 780 856 913 Z M1196 385 Q1196 227 1071 115 Q944 0 768 0 L154 0 L154 1276 L729 1276 Q905 1276 1030 1174 Q1155 1073 1155 918 Q1155 767 1040 672 Q1106 624 1149 555 Q1196 472 1196 385 Z " />
<glyph glyph-name="C" unicode="C" horiz-adv-x="1120" d="M1057 63 Q976 21 871 1.5 Q766 -18 633 -18 Q517 -18 421 17.5 Q325 53 250 125 Q102 267 102 473 L102 805 Q102 1009 250 1151 Q325 1223 421 1258.5 Q517 1294 633 1294 Q843 1294 1042 1210 L969 999 Q894 1028 826.5 1043.5 Q759 1059 696 1059 Q578 1059 489 983 Q399 905 399 807 L399 463 Q399 362 489 287 Q581 215 696 215 Q765 215 837.5 230 Q910 245 985 274 L1057 63 L1057 63 Z " />
<glyph glyph-name="D" unicode="D" horiz-adv-x="1335" d="M936 807 Q936 855 917.5 896.5 Q899 938 866 968 Q833 998 786.5 1015 Q740 1032 684 1032 L451 1032 L451 244 L684 244 Q740 244 786.5 261 Q833 278 866 308 Q899 338 917.5 379.5 Q936 421 936 469 L936 807 Z M1233 479 Q1233 273 1073 135 Q914 0 684 0 L154 0 L154 1276 L684 1276 Q915 1276 1073 1139 Q1233 1001 1233 797 L1233 479 L1233 479 Z " />
<glyph glyph-name="E" unicode="E" horiz-adv-x="1110" d="M154 0 L154 1276 L1022 1276 L1022 1038 L453 1038 L453 780 L1022 780 L1022 543 L453 543 L453 238 L1022 238 L1022 0 L154 0 Z " />
<glyph glyph-name="F" unicode="F" horiz-adv-x="1110" d="M453 543 L453 0 L154 0 L154 1276 L1022 1276 L1022 1032 L453 1032 L453 780 L1022 780 L1022 543 L453 543 Z " />
<glyph glyph-name="G" unicode="G" horiz-adv-x="1237" d="M1135 82 Q976 32 851.5 8 Q727 -16 633 -16 Q401 -16 252 127 Q102 271 102 477 L102 797 Q102 902 139 989 Q176 1076 248 1147 Q398 1294 641 1294 Q766 1294 876 1269.5 Q986 1245 1083 1194 L1010 983 Q836 1059 690 1059 Q627 1059 576 1040.5 Q525 1022 483 985 Q401 915 401 811 L401 461 Q401 357 463 289 Q495 254 537 235.5 Q579 217 633 217 Q661 217 693 221 Q725 225 762 233 Q780 238 798.5 243.5 Q817 249 836 254 L836 598 L1135 598 L1135 82 L1135 82 Z " />
<glyph glyph-name="H" unicode="H" horiz-adv-x="1374" d="M922 0 L922 543 L453 543 L453 0 L154 0 L154 1276 L453 1276 L453 780 L922 780 L922 1276 L1221 1276 L1221 0 L922 0 Z " />
<glyph glyph-name="I" unicode="I" horiz-adv-x="604" d="M154 0 L154 1276 L453 1276 L453 0 L154 0 Z " />
<glyph glyph-name="J" unicode="J" horiz-adv-x="1102" d="M948 471 Q948 368 914 281 Q880 194 811 125 Q668 -18 438 -18 Q316 -18 209.5 5 Q103 28 12 76 L86 287 Q163 252 238 233.5 Q313 215 387 215 Q505 215 571 272 Q649 337 649 467 L649 1032 L283 1032 L283 1276 L948 1276 L948 471 L948 471 Z " />
<glyph glyph-name="K" unicode="K" horiz-adv-x="1339" d="M969 0 L602 578 L467 436 L467 0 L174 0 L174 1276 L467 1276 L467 807 L932 1276 L1286 1276 L803 780 L1313 0 L969 0 Z " />
<glyph glyph-name="L" unicode="L" horiz-adv-x="1042" d="M141 0 L141 1276 L438 1276 L438 238 L1004 238 L1004 0 L141 0 Z " />
<glyph glyph-name="M" unicode="M" horiz-adv-x="1636" d="M1163 0 L1163 864 L817 512 L471 864 L471 0 L174 0 L174 1276 L434 1276 L817 877 L1200 1276 L1462 1276 L1462 0 L1163 0 Z " />
<glyph glyph-name="N" unicode="N" horiz-adv-x="1446" d="M973 0 L973 436 L471 874 L471 0 L174 0 L174 1276 L410 1276 L973 782 L973 1276 L1272 1276 L1272 0 L973 0 Z " />
<glyph glyph-name="O" unicode="O" horiz-adv-x="1303" d="M901 815 Q901 866 882.5 910.5 Q864 955 831 988 Q798 1021 752 1040 Q706 1059 651 1059 Q597 1059 551 1040 Q505 1021 471.5 988 Q438 955 419.5 910.5 Q401 866 401 815 L401 459 Q401 357 471 287 Q543 215 651 215 Q757 215 829 287 Q901 358 901 459 L901 815 Z M1200 477 Q1200 269 1040 125 Q962 53 864.5 17.5 Q767 -18 651 -18 Q421 -18 262 125 Q102 270 102 477 L102 797 Q102 1004 262 1149 Q424 1294 651 1294 Q883 1294 1040 1149 Q1200 1005 1200 797 L1200 477 L1200 477 Z " />
<glyph glyph-name="P" unicode="P" horiz-adv-x="1241" d="M881 879 Q881 939 842 985 Q801 1032 735 1032 L453 1032 L453 725 L735 725 Q803 725 842 770 Q881 814 881 879 Z M1178 881 Q1178 721 1069 606 Q956 487 770 487 L453 487 L453 0 L154 0 L154 1276 L770 1276 Q951 1276 1069 1155 Q1123 1098 1150.5 1030 Q1178 962 1178 881 Z " />
<glyph glyph-name="Q" unicode="Q" horiz-adv-x="1303" d="M901 815 Q901 866 882.5 910.5 Q864 955 831 988 Q798 1021 752 1040 Q706 1059 651 1059 Q597 1059 551 1040 Q505 1021 471.5 988 Q438 955 419.5 910.5 Q401 866 401 815 L401 459 Q401 357 471 287 Q543 215 651 215 Q681 215 709 221 L481 512 L772 512 L881 360 Q901 404 901 459 L901 815 Z M1200 477 Q1200 269 1040 125 Q962 53 864.5 17.5 Q767 -18 651 -18 Q421 -18 262 125 Q102 270 102 477 L102 797 Q102 1004 262 1149 Q424 1294 651 1294 Q883 1294 1040 1149 Q1200 1005 1200 797 L1200 477 L1200 477 Z " />
<glyph glyph-name="R" unicode="R" horiz-adv-x="1260" d="M879 879 Q879 939 840 985 Q799 1032 733 1032 L453 1032 L453 725 L733 725 Q800 725 842 770 Q860 793 869.5 820 Q879 847 879 879 Z M885 0 L631 487 L453 487 L453 0 L154 0 L154 1276 L770 1276 Q951 1276 1069 1155 Q1123 1098 1150.5 1030 Q1178 962 1178 881 Q1178 760 1110 657 Q1073 603 1024 567.5 Q975 532 915 512 L1196 0 L885 0 Z " />
<glyph glyph-name="S" unicode="S" horiz-adv-x="1184" d="M1094 389 Q1094 222 971 109 Q835 -18 606 -18 Q461 -18 333 11 Q205 40 90 100 L166 311 Q268 263 364 239 Q460 215 553 215 Q799 215 799 367 Q799 440 723 479 Q655 514 559 514 Q331 514 205 631 Q90 735 90 895 Q90 1067 211 1176 Q342 1294 578 1294 Q712 1294 823.5 1271 Q935 1248 1026 1200 L956 991 Q799 1059 637 1059 Q385 1059 385 922 Q385 799 612 799 Q829 799 956 696 Q1094 591 1094 389 Z " />
<glyph glyph-name="T" unicode="T" horiz-adv-x="1151" d="M725 1038 L725 0 L426 0 L426 1038 L51 1038 L51 1276 L1100 1276 L1100 1038 L725 1038 Z " />
<glyph glyph-name="U" unicode="U" horiz-adv-x="1405" d="M1251 477 Q1251 271 1092 127 Q1013 55 915.5 19.5 Q818 -16 702 -16 Q470 -16 311 127 Q154 272 154 477 L154 1276 L453 1276 L453 459 Q453 409 472 364.5 Q491 320 524.5 287 Q558 254 603.5 234.5 Q649 215 702 215 Q809 215 881 287 Q952 358 952 459 L952 1276 L1251 1276 L1251 477 L1251 477 Z " />
<glyph glyph-name="V" unicode="V" horiz-adv-x="1321" d="M815 0 L496 0 L27 1276 L336 1276 L655 297 L977 1276 L1294 1276 L815 0 Z " />
<glyph glyph-name="W" unicode="W" horiz-adv-x="1952" d="M1798 457 Q1798 245 1683 115 Q1564 -18 1337 -18 Q1267 -18 1207 -1.5 Q1147 15 1100.5 47 Q1054 79 1022 126 Q990 173 977 233 Q962 173 930 126 Q898 79 851 47 Q804 15 743.5 -1.5 Q683 -18 612 -18 Q389 -18 268 115 Q154 246 154 457 L154 1276 L453 1276 L453 438 Q453 215 639 215 Q825 215 825 438 L827 1276 L1124 1276 L1124 438 Q1124 215 1313 215 Q1499 215 1499 438 L1499 1276 L1798 1276 L1798 457 L1798 457 Z " />
<glyph glyph-name="X" unicode="X" horiz-adv-x="1286" d="M940 0 L643 438 L348 0 L27 0 L483 674 L74 1276 L393 1276 L643 909 L895 1276 L1214 1276 L805 674 L1262 0 L940 0 Z " />
<glyph glyph-name="Y" unicode="Y" horiz-adv-x="1239" d="M768 530 L768 0 L471 0 L471 530 L27 1276 L340 1276 L621 776 L901 1276 L1214 1276 L768 530 Z " />
<glyph glyph-name="Z" unicode="Z" horiz-adv-x="1204" d="M90 0 L90 186 L694 1038 L137 1038 L137 1276 L1083 1276 L1083 1090 L475 238 L1114 238 L1114 0 L90 0 Z " />
<glyph glyph-name="bracketleft" unicode="&#x5b;" horiz-adv-x="801" d="M154 -121 L154 1399 L698 1399 L698 1210 L352 1210 L352 66 L698 66 L698 -121 L154 -121 Z " />
<glyph glyph-name="backslash" unicode="&#x5c;" horiz-adv-x="944" d="M680 0 L27 1276 L264 1276 L918 0 L680 0 Z " />
<glyph glyph-name="bracketright" unicode="&#x5d;" horiz-adv-x="801" d="M154 -121 L154 66 L498 66 L498 1210 L154 1210 L154 1399 L698 1399 L698 -121 L154 -121 Z " />
<glyph glyph-name="asciicircum" unicode="&#x5e;" horiz-adv-x="1288" d="M645 1026 L115 500 L115 784 L645 1311 L1174 784 L1174 500 L645 1026 Z " />
<glyph glyph-name="underscore" unicode="&#x5f;" horiz-adv-x="993" d="M0 -297 L0 -61 L993 -61 L993 -297 L0 -297 Z " />
<glyph glyph-name="grave" unicode="&#x60;" horiz-adv-x="696" d="M373 1284 L78 1575 L391 1575 L618 1284 L373 1284 Z " />
<glyph glyph-name="a" unicode="a" horiz-adv-x="1184" d="M743 463 L539 463 Q362 463 362 340 Q362 277 408 244 Q445 211 512 211 Q614 211 684 260 Q743 301 743 346 L743 463 Z M743 0 L743 90 Q643 -18 451 -18 Q294 -18 184 68 Q63 163 63 319 Q63 637 465 637 L743 637 L743 672 Q743 724 723.5 760.5 Q704 797 662 817 Q633 831 589 838.5 Q545 846 485 846 Q400 846 328.5 830.5 Q257 815 197 786 L125 979 Q306 1073 551 1073 Q755 1073 895 965 Q1042 848 1042 659 L1042 0 L743 0 Z " />
<glyph glyph-name="b" unicode="b" horiz-adv-x="1210" d="M848 588 Q848 838 664 838 Q527 838 438 719 L438 334 Q527 215 664 215 Q848 215 848 467 L848 588 Z M1147 489 Q1147 251 1024 113 Q908 -18 715 -18 Q521 -18 438 86 L438 0 L141 0 L141 1507 L438 1507 L438 967 Q528 1073 715 1073 Q904 1073 1024 938 Q1147 800 1147 563 L1147 489 L1147 489 Z " />
<glyph glyph-name="c" unicode="c" horiz-adv-x="1010" d="M965 66 Q808 -18 578 -18 Q351 -18 211 106 Q63 243 63 473 L63 584 Q63 810 211 946 Q350 1073 578 1073 Q798 1073 940 993 L864 788 Q759 838 633 838 Q362 838 362 586 L362 465 Q362 339 442 274 Q477 245 525 230 Q573 215 633 215 Q776 215 891 268 L965 66 L965 66 Z " />
<glyph glyph-name="d" unicode="d" horiz-adv-x="1210" d="M770 719 Q685 838 547 838 Q362 838 362 588 L362 467 Q362 215 547 215 Q685 215 770 334 L770 719 Z M770 0 L770 86 Q688 -18 496 -18 Q302 -18 186 113 Q63 251 63 489 L63 563 Q63 800 186 938 Q306 1073 496 1073 Q682 1073 770 967 L770 1507 L1069 1507 L1069 0 L770 0 Z " />
<glyph glyph-name="e" unicode="e" horiz-adv-x="1153" d="M791 627 Q791 848 575 848 Q362 848 362 627 L791 627 L791 627 Z M362 434 L362 416 Q362 209 610 209 Q692 209 776.5 230 Q861 251 952 293 L1036 90 Q828 -18 575 -18 Q350 -18 207 106 Q63 232 63 436 L63 618 Q63 722 99 803.5 Q135 885 207 948 Q350 1073 575 1073 Q803 1073 944 950 Q1016 887 1053 804.5 Q1090 722 1090 618 L1090 434 L362 434 Z " />
<glyph glyph-name="f" unicode="f" horiz-adv-x="911" d="M686 1270 Q530 1270 530 1145 L530 1055 L772 1055 L772 817 L530 817 L530 0 L231 0 L231 817 L63 817 L63 1055 L231 1055 L231 1124 Q231 1314 354 1411 Q471 1507 686 1507 L834 1507 L834 1270 L686 1270 Z " />
<glyph glyph-name="g" unicode="g" horiz-adv-x="1210" d="M770 721 Q685 838 547 838 Q362 838 362 588 L362 485 Q362 236 547 236 Q686 236 770 354 L770 721 Z M1069 0 Q1069 -207 920 -332 Q773 -453 543 -453 Q323 -453 143 -358 L223 -143 Q370 -217 512 -217 Q620 -217 690 -168 Q770 -109 770 -2 L770 106 Q722 52 653.5 26 Q585 0 496 0 Q307 0 188 137 Q63 277 63 510 L63 563 Q63 805 188 942 Q307 1073 496 1073 Q682 1073 770 967 L770 1055 L1069 1055 L1069 0 L1069 0 Z " />
<glyph glyph-name="h" unicode="h" horiz-adv-x="1274" d="M848 0 L848 588 Q848 716 811 774 Q768 838 664 838 Q594 838 538.5 809 Q483 780 438 721 L438 0 L141 0 L141 1507 L438 1507 L438 967 Q455 987 482.5 1005 Q510 1023 547 1038 Q628 1073 713 1073 Q1147 1073 1147 563 L1147 0 L848 0 Z " />
<glyph glyph-name="i" unicode="i" horiz-adv-x="580" d="M139 0 L139 1055 L438 1055 L438 0 L139 0 Z M104 1282 L104 1493 L473 1493 L473 1282 L104 1282 Z " />
<glyph glyph-name="j" unicode="j" horiz-adv-x="821" d="M670 25 Q670 -150 520 -260 Q383 -367 182 -367 L27 -367 L27 -129 L197 -129 Q271 -129 324 -82 Q373 -35 373 16 L373 817 L27 817 L27 1055 L670 1055 L670 25 L670 25 Z M311 1282 L311 1493 L682 1493 L682 1282 L311 1282 Z " />
<glyph glyph-name="k" unicode="k" horiz-adv-x="1196" d="M141 0 L141 1507 L438 1507 L438 0 L141 0 Z M887 0 L469 610 L778 1055 L1116 1055 L801 608 L1227 0 L887 0 Z " />
<glyph glyph-name="l" unicode="l" horiz-adv-x="580" d="M141 0 L141 1507 L438 1507 L438 0 L141 0 Z " />
<glyph glyph-name="m" unicode="m" horiz-adv-x="1880" d="M1454 0 L1454 633 Q1454 742 1399 797 Q1377 817 1351 827.5 Q1325 838 1294 838 Q1170 838 1096 721 L1096 0 L797 0 L797 633 Q797 741 741 797 Q697 838 639 838 Q512 838 438 721 L438 0 L141 0 L141 1055 L438 1055 L438 969 Q461 991 494 1010 Q527 1029 564.5 1043 Q602 1057 641.5 1065 Q681 1073 715 1073 Q896 1073 1004 944 Q1142 1073 1337 1073 Q1433 1073 1509.5 1042 Q1586 1011 1640 952.5 Q1694 894 1722.5 810.5 Q1751 727 1751 623 L1751 0 L1454 0 Z " />
<glyph glyph-name="n" unicode="n" horiz-adv-x="1274" d="M848 0 L848 588 Q848 716 811 774 Q768 838 664 838 Q594 838 538.5 809 Q483 780 438 721 L438 0 L141 0 L141 1055 L438 1055 L438 967 Q455 987 482.5 1005 Q510 1023 547 1038 Q628 1073 713 1073 Q1147 1073 1147 563 L1147 0 L848 0 Z " />
<glyph glyph-name="o" unicode="o" horiz-adv-x="1151" d="M788 629 Q788 838 575 838 Q362 838 362 629 L362 426 Q362 215 575 215 Q788 215 788 426 L788 629 Z M1087 436 Q1087 232 946 106 Q877 43 784 12.5 Q691 -18 575 -18 Q343 -18 203 106 Q134 169 98.5 251 Q63 333 63 436 L63 618 Q63 722 98.5 803.5 Q134 885 203 948 Q343 1073 575 1073 Q691 1073 784 1042 Q877 1011 946 948 Q1017 885 1052 803.5 Q1087 722 1087 618 L1087 436 L1087 436 Z " />
<glyph glyph-name="p" unicode="p" horiz-adv-x="1210" d="M848 588 Q848 838 664 838 Q594 838 538.5 809 Q483 780 438 721 L438 336 Q483 276 538.5 245.5 Q594 215 664 215 Q848 215 848 467 L848 588 Z M1147 489 Q1147 255 1024 117 Q904 -18 715 -18 Q527 -18 438 86 L438 -451 L141 -451 L141 1055 L438 1055 L438 967 Q522 1073 715 1073 Q906 1073 1024 940 Q1147 802 1147 563 L1147 489 L1147 489 Z " />
<glyph glyph-name="q" unicode="q" horiz-adv-x="1210" d="M770 721 Q685 838 547 838 Q362 838 362 588 L362 467 Q362 215 547 215 Q684 215 770 336 L770 721 Z M770 -451 L770 86 Q682 -18 496 -18 Q306 -18 186 117 Q63 255 63 489 L63 563 Q63 802 186 940 Q304 1073 496 1073 Q688 1073 770 967 L770 1055 L1069 1055 L1069 -451 L770 -451 Z " />
<glyph glyph-name="r" unicode="r" horiz-adv-x="948" d="M883 801 Q605 801 438 616 L438 0 L141 0 L141 1055 L438 1055 L438 887 Q612 1073 870 1073 L930 1073 L930 801 L883 801 Z " />
<glyph glyph-name="s" unicode="s" horiz-adv-x="1061" d="M995 338 Q995 194 877 92 Q739 -18 506 -18 Q379 -18 275 5 Q171 28 86 76 L152 279 Q282 205 471 205 Q702 205 702 305 Q702 369 645 389 Q594 414 469 414 Q314 414 213 475 Q78 558 78 733 Q78 875 188 971 Q313 1073 528 1073 Q649 1073 751 1055 Q853 1037 938 999 L872 801 Q789 827 717 839.5 Q645 852 582 852 Q371 852 371 756 Q371 662 612 662 Q769 662 870 594 Q995 509 995 338 Z " />
<glyph glyph-name="t" unicode="t" horiz-adv-x="881" d="M711 0 Q510 0 379 106 Q238 214 238 385 L238 817 L51 817 L51 1055 L238 1055 L238 1376 L537 1376 L537 1055 L829 1055 L829 817 L537 817 L537 369 Q537 341 549.5 316.5 Q562 292 585 275 Q608 258 639.5 248 Q671 238 709 238 L829 238 L829 0 L711 0 Z " />
<glyph glyph-name="u" unicode="u" horiz-adv-x="1286" d="M848 0 L848 86 Q810 42 741 14 Q703 -3 662 -10.5 Q621 -18 578 -18 Q334 -18 229 123 Q141 245 141 489 L141 1055 L438 1055 L438 467 Q438 398 444.5 352 Q451 306 465 283 Q498 215 623 215 Q763 215 848 334 L848 1055 L1147 1055 L1147 0 L848 0 Z " />
<glyph glyph-name="v" unicode="v" horiz-adv-x="1176" d="M743 0 L430 0 L27 1055 L328 1055 L588 301 L848 1055 L1149 1055 L743 0 Z " />
<glyph glyph-name="w" unicode="w" horiz-adv-x="1819" d="M1677 465 Q1677 355 1652.5 268.5 Q1628 182 1577 119 Q1467 -18 1245 -18 Q1181 -18 1125.5 -0.5 Q1070 17 1026 48.5 Q982 80 951.5 125 Q921 170 909 225 Q897 170 866.5 125 Q836 80 791.5 48.5 Q747 17 691 -0.5 Q635 -18 573 -18 Q351 -18 242 119 Q141 244 141 465 L141 1055 L438 1055 L438 446 Q438 334 469 281 Q507 215 598 215 Q692 215 729 281 Q760 331 760 446 L760 1055 L1059 1055 L1059 446 Q1059 331 1090 281 Q1127 215 1221 215 Q1312 215 1350 281 Q1380 332 1380 446 L1380 1055 L1677 1055 L1677 465 L1677 465 Z " />
<glyph glyph-name="x" unicode="x" horiz-adv-x="1194" d="M842 0 L598 332 L354 0 L27 0 L434 553 L68 1055 L387 1055 L598 770 L807 1055 L1126 1055 L760 553 L1169 0 L842 0 Z " />
<glyph glyph-name="y" unicode="y" horiz-adv-x="1157" d="M618 -25 Q595 -73 552.5 -111 Q510 -149 449 -178 Q336 -236 199 -236 L82 -236 L82 8 L199 8 Q262 11 322 57 Q345 76 360.5 97 Q376 118 387 141 L440 250 L27 1055 L328 1055 L584 528 L842 1055 L1143 1055 L618 -25 Z " />
<glyph glyph-name="z" unicode="z" horiz-adv-x="1061" d="M78 0 L78 182 L584 817 L78 817 L78 1055 L983 1055 L983 870 L471 238 L983 238 L983 0 L78 0 Z " />
<glyph glyph-name="braceleft" unicode="&#x7b;" horiz-adv-x="791" d="M664 -141 Q486 -141 379 -49 Q274 40 274 174 L274 424 Q274 557 78 557 L78 743 Q274 743 274 877 L274 1124 Q274 1262 379 1352 Q488 1444 664 1444 L664 1257 Q467 1257 467 1124 L467 877 Q467 745 369 649 Q467 554 467 424 L467 174 Q467 43 664 43 L664 -141 L664 -141 Z " />
<glyph glyph-name="bar" unicode="&#x7c;" horiz-adv-x="535" d="M178 -494 L178 1479 L356 1479 L356 -494 L178 -494 Z " />
<glyph glyph-name="braceright" unicode="&#x7d;" horiz-adv-x="791" d="M715 557 Q516 557 516 424 L516 174 Q516 40 412 -49 Q305 -141 129 -141 L129 43 Q326 43 326 174 L326 424 Q326 555 424 649 Q326 744 326 877 L326 1124 Q326 1257 129 1257 L129 1444 Q303 1444 412 1352 Q516 1262 516 1124 L516 877 Q516 743 715 743 L715 557 L715 557 Z " />
<glyph glyph-name="asciitilde" unicode="&#x7e;" horiz-adv-x="1296" d="M1245 975 Q1090 684 874 684 Q823 684 762 702.5 Q701 721 629 756 Q556 791 504 809 Q452 827 418 827 Q329 827 203 631 L51 762 Q233 1047 451 1047 Q499 1047 558 1029.5 Q617 1012 686 977 Q825 909 889 909 Q974 909 1100 1102 L1245 975 L1245 975 Z " />
<glyph glyph-name="Adieresis" unicode="&#xc4;" horiz-adv-x="1321" d="M340 1430 L340 1663 L576 1663 L576 1430 L340 1430 Z M758 1430 L758 1663 L994 1663 L994 1430 L758 1430 Z M666 991 L500 489 L831 489 L666 991 Z M993 0 L905 268 L426 268 L338 0 L27 0 L506 1276 L825 1276 L1294 0 L993 0 Z " />
<glyph glyph-name="Aring" unicode="&#xc5;" horiz-adv-x="1321" d="M772 1665 Q772 1687 763.5 1706.5 Q755 1726 740.5 1740 Q726 1754 706.5 1762.5 Q687 1771 665 1771 Q620 1771 589.5 1740.5 Q559 1710 559 1665 Q559 1643 567.5 1623.5 Q576 1604 590 1589.5 Q604 1575 623.5 1566.5 Q643 1558 665 1558 Q687 1558 706.5 1566.5 Q726 1575 740.5 1589.5 Q755 1604 763.5 1623.5 Q772 1643 772 1665 Z M919 1665 Q919 1561 846 1484 Q773 1411 665 1411 Q558 1411 485 1484 Q412 1561 412 1665 Q412 1772 485 1845 Q558 1921 665 1921 Q773 1921 846 1845 Q919 1772 919 1665 Z M666 991 L500 489 L831 489 L666 991 Z M993 0 L905 268 L426 268 L338 0 L27 0 L506 1276 L825 1276 L1294 0 L993 0 Z " />
<glyph glyph-name="Ccedilla" unicode="&#xc7;" horiz-adv-x="1120" d="M567 -369 L254 -369 L549 -78 L794 -78 L567 -369 Z M1057 63 Q976 21 871 1.5 Q766 -18 633 -18 Q517 -18 421 17.5 Q325 53 250 125 Q102 267 102 473 L102 805 Q102 1009 250 1151 Q325 1223 421 1258.5 Q517 1294 633 1294 Q843 1294 1042 1210 L969 999 Q894 1028 826.5 1043.5 Q759 1059 696 1059 Q578 1059 489 983 Q399 905 399 807 L399 463 Q399 362 489 287 Q581 215 696 215 Q765 215 837.5 230 Q910 245 985 274 L1057 63 L1057 63 Z " />
<glyph glyph-name="Eacute" unicode="&#xc9;" horiz-adv-x="1110" d="M627 1429 L381 1429 L608 1720 L921 1720 L627 1429 Z M154 0 L154 1276 L1022 1276 L1022 1038 L453 1038 L453 780 L1022 780 L1022 543 L453 543 L453 238 L1022 238 L1022 0 L154 0 Z " />
<glyph glyph-name="Ntilde" unicode="&#xd1;" horiz-adv-x="1446" d="M1092 1730 Q1036 1435 842 1435 Q761 1435 670 1499 Q588 1554 568 1554 Q511 1554 484 1444 L320 1444 Q373 1736 568 1736 Q646 1736 758 1655 Q808 1620 842 1620 Q899 1620 926 1730 L1092 1730 L1092 1730 Z M973 0 L973 436 L471 874 L471 0 L174 0 L174 1276 L410 1276 L973 782 L973 1276 L1272 1276 L1272 0 L973 0 Z " />
<glyph glyph-name="Odieresis" unicode="&#xd6;" horiz-adv-x="1303" d="M323 1432 L323 1665 L559 1665 L559 1432 L323 1432 Z M741 1432 L741 1665 L977 1665 L977 1432 L741 1432 Z M901 815 Q901 866 882.5 910.5 Q864 955 831 988 Q798 1021 752 1040 Q706 1059 651 1059 Q597 1059 551 1040 Q505 1021 471.5 988 Q438 955 419.5 910.5 Q401 866 401 815 L401 459 Q401 357 471 287 Q543 215 651 215 Q757 215 829 287 Q901 358 901 459 L901 815 Z M1200 477 Q1200 269 1040 125 Q962 53 864.5 17.5 Q767 -18 651 -18 Q421 -18 262 125 Q102 270 102 477 L102 797 Q102 1004 262 1149 Q424 1294 651 1294 Q883 1294 1040 1149 Q1200 1005 1200 797 L1200 477 L1200 477 Z " />
<glyph glyph-name="Udieresis" unicode="&#xdc;" horiz-adv-x="1405" d="M376 1430 L376 1663 L612 1663 L612 1430 L376 1430 Z M794 1430 L794 1663 L1030 1663 L1030 1430 L794 1430 Z M1251 477 Q1251 271 1092 127 Q1013 55 915.5 19.5 Q818 -16 702 -16 Q470 -16 311 127 Q154 272 154 477 L154 1276 L453 1276 L453 459 Q453 409 472 364.5 Q491 320 524.5 287 Q558 254 603.5 234.5 Q649 215 702 215 Q809 215 881 287 Q952 358 952 459 L952 1276 L1251 1276 L1251 477 L1251 477 Z " />
<glyph glyph-name="aacute" unicode="&#xe1;" horiz-adv-x="1184" d="M743 463 L539 463 Q362 463 362 340 Q362 277 408 244 Q445 211 512 211 Q614 211 684 260 Q743 301 743 346 L743 463 Z M743 0 L743 90 Q643 -18 451 -18 Q294 -18 184 68 Q63 163 63 319 Q63 637 465 637 L743 637 L743 672 Q743 724 723.5 760.5 Q704 797 662 817 Q633 831 589 838.5 Q545 846 485 846 Q400 846 328.5 830.5 Q257 815 197 786 L125 979 Q306 1073 551 1073 Q755 1073 895 965 Q1042 848 1042 659 L1042 0 L743 0 Z M643 1245 L397 1245 L624 1536 L937 1536 L643 1245 Z " />
<glyph glyph-name="agrave" unicode="&#xe0;" horiz-adv-x="1184" d="M490 1245 L195 1536 L508 1536 L735 1245 L490 1245 Z M743 463 L539 463 Q362 463 362 340 Q362 277 408 244 Q445 211 512 211 Q614 211 684 260 Q743 301 743 346 L743 463 Z M743 0 L743 90 Q643 -18 451 -18 Q294 -18 184 68 Q63 163 63 319 Q63 637 465 637 L743 637 L743 672 Q743 724 723.5 760.5 Q704 797 662 817 Q633 831 589 838.5 Q545 846 485 846 Q400 846 328.5 830.5 Q257 815 197 786 L125 979 Q306 1073 551 1073 Q755 1073 895 965 Q1042 848 1042 659 L1042 0 L743 0 Z " />
<glyph glyph-name="acircumflex" unicode="&#xe2;" horiz-adv-x="1184" d="M705 1257 L555 1442 L406 1257 L178 1257 L430 1593 L680 1593 L930 1257 L705 1257 Z M743 463 L539 463 Q362 463 362 340 Q362 277 408 244 Q445 211 512 211 Q614 211 684 260 Q743 301 743 346 L743 463 Z M743 0 L743 90 Q643 -18 451 -18 Q294 -18 184 68 Q63 163 63 319 Q63 637 465 637 L743 637 L743 672 Q743 724 723.5 760.5 Q704 797 662 817 Q633 831 589 838.5 Q545 846 485 846 Q400 846 328.5 830.5 Q257 815 197 786 L125 979 Q306 1073 551 1073 Q755 1073 895 965 Q1042 848 1042 659 L1042 0 L743 0 Z " />
<glyph glyph-name="adieresis" unicode="&#xe4;" horiz-adv-x="1184" d="M235 1241 L235 1474 L471 1474 L471 1241 L235 1241 Z M653 1241 L653 1474 L889 1474 L889 1241 L653 1241 Z M743 463 L539 463 Q362 463 362 340 Q362 277 408 244 Q445 211 512 211 Q614 211 684 260 Q743 301 743 346 L743 463 Z M743 0 L743 90 Q643 -18 451 -18 Q294 -18 184 68 Q63 163 63 319 Q63 637 465 637 L743 637 L743 672 Q743 724 723.5 760.5 Q704 797 662 817 Q633 831 589 838.5 Q545 846 485 846 Q400 846 328.5 830.5 Q257 815 197 786 L125 979 Q306 1073 551 1073 Q755 1073 895 965 Q1042 848 1042 659 L1042 0 L743 0 Z " />
<glyph glyph-name="atilde" unicode="&#xe3;" horiz-adv-x="1184" d="M948 1536 Q892 1241 698 1241 Q617 1241 526 1305 Q444 1360 424 1360 Q367 1360 340 1250 L176 1250 Q229 1542 424 1542 Q502 1542 614 1461 Q664 1426 698 1426 Q755 1426 782 1536 L948 1536 L948 1536 Z M743 463 L539 463 Q362 463 362 340 Q362 277 408 244 Q445 211 512 211 Q614 211 684 260 Q743 301 743 346 L743 463 Z M743 0 L743 90 Q643 -18 451 -18 Q294 -18 184 68 Q63 163 63 319 Q63 637 465 637 L743 637 L743 672 Q743 724 723.5 760.5 Q704 797 662 817 Q633 831 589 838.5 Q545 846 485 846 Q400 846 328.5 830.5 Q257 815 197 786 L125 979 Q306 1073 551 1073 Q755 1073 895 965 Q1042 848 1042 659 L1042 0 L743 0 Z " />
<glyph glyph-name="aring" unicode="&#xe5;" horiz-adv-x="1184" d="M682 1459 Q682 1481 673.5 1500.5 Q665 1520 650.5 1534 Q636 1548 616.5 1556.5 Q597 1565 575 1565 Q530 1565 499.5 1534.5 Q469 1504 469 1459 Q469 1437 477.5 1417.5 Q486 1398 500 1383.5 Q514 1369 533.5 1360.5 Q553 1352 575 1352 Q597 1352 616.5 1360.5 Q636 1369 650.5 1383.5 Q665 1398 673.5 1417.5 Q682 1437 682 1459 Z M829 1459 Q829 1355 756 1278 Q683 1205 575 1205 Q468 1205 395 1278 Q322 1355 322 1459 Q322 1566 395 1639 Q468 1715 575 1715 Q683 1715 756 1639 Q829 1566 829 1459 Z M743 463 L539 463 Q362 463 362 340 Q362 277 408 244 Q445 211 512 211 Q614 211 684 260 Q743 301 743 346 L743 463 Z M743 0 L743 90 Q643 -18 451 -18 Q294 -18 184 68 Q63 163 63 319 Q63 637 465 637 L743 637 L743 672 Q743 724 723.5 760.5 Q704 797 662 817 Q633 831 589 838.5 Q545 846 485 846 Q400 846 328.5 830.5 Q257 815 197 786 L125 979 Q306 1073 551 1073 Q755 1073 895 965 Q1042 848 1042 659 L1042 0 L743 0 Z " />
<glyph glyph-name="ccedilla" unicode="&#xe7;" horiz-adv-x="1010" d="M512 -369 L199 -369 L494 -78 L739 -78 L512 -369 Z M965 66 Q808 -18 578 -18 Q351 -18 211 106 Q63 243 63 473 L63 584 Q63 810 211 946 Q350 1073 578 1073 Q798 1073 940 993 L864 788 Q759 838 633 838 Q362 838 362 586 L362 465 Q362 339 442 274 Q477 245 525 230 Q573 215 633 215 Q776 215 891 268 L965 66 L965 66 Z " />
<glyph glyph-name="eacute" unicode="&#xe9;" horiz-adv-x="1153" d="M791 627 Q791 848 575 848 Q362 848 362 627 L791 627 L791 627 Z M362 434 L362 416 Q362 209 610 209 Q692 209 776.5 230 Q861 251 952 293 L1036 90 Q828 -18 575 -18 Q350 -18 207 106 Q63 232 63 436 L63 618 Q63 722 99 803.5 Q135 885 207 948 Q350 1073 575 1073 Q803 1073 944 950 Q1016 887 1053 804.5 Q1090 722 1090 618 L1090 434 L362 434 Z M674 1238 L428 1238 L655 1529 L968 1529 L674 1238 Z " />
<glyph glyph-name="egrave" unicode="&#xe8;" horiz-adv-x="1153" d="M463 1245 L168 1536 L481 1536 L708 1245 L463 1245 Z M791 627 Q791 848 575 848 Q362 848 362 627 L791 627 L791 627 Z M362 434 L362 416 Q362 209 610 209 Q692 209 776.5 230 Q861 251 952 293 L1036 90 Q828 -18 575 -18 Q350 -18 207 106 Q63 232 63 436 L63 618 Q63 722 99 803.5 Q135 885 207 948 Q350 1073 575 1073 Q803 1073 944 950 Q1016 887 1053 804.5 Q1090 722 1090 618 L1090 434 L362 434 Z " />
<glyph glyph-name="ecircumflex" unicode="&#xea;" horiz-adv-x="1153" d="M725 1253 L575 1438 L426 1253 L198 1253 L450 1589 L700 1589 L950 1253 L725 1253 Z M791 627 Q791 848 575 848 Q362 848 362 627 L791 627 L791 627 Z M362 434 L362 416 Q362 209 610 209 Q692 209 776.5 230 Q861 251 952 293 L1036 90 Q828 -18 575 -18 Q350 -18 207 106 Q63 232 63 436 L63 618 Q63 722 99 803.5 Q135 885 207 948 Q350 1073 575 1073 Q803 1073 944 950 Q1016 887 1053 804.5 Q1090 722 1090 618 L1090 434 L362 434 Z " />
<glyph glyph-name="edieresis" unicode="&#xeb;" horiz-adv-x="1153" d="M252 1246 L252 1479 L488 1479 L488 1246 L252 1246 Z M670 1246 L670 1479 L906 1479 L906 1246 L670 1246 Z M791 627 Q791 848 575 848 Q362 848 362 627 L791 627 L791 627 Z M362 434 L362 416 Q362 209 610 209 Q692 209 776.5 230 Q861 251 952 293 L1036 90 Q828 -18 575 -18 Q350 -18 207 106 Q63 232 63 436 L63 618 Q63 722 99 803.5 Q135 885 207 948 Q350 1073 575 1073 Q803 1073 944 950 Q1016 887 1053 804.5 Q1090 722 1090 618 L1090 434 L362 434 Z " />
<glyph glyph-name="iacute" unicode="&#xed;" horiz-adv-x="580" d="M141 0 L141 1055 L438 1055 L438 0 L141 0 Z M374 1239 L128 1239 L355 1530 L668 1530 L374 1239 Z " />
<glyph glyph-name="igrave" unicode="&#xec;" horiz-adv-x="580" d="M141 0 L141 1055 L438 1055 L438 0 L141 0 Z M203 1245 L-92 1536 L221 1536 L448 1245 L203 1245 Z " />
<glyph glyph-name="icircumflex" unicode="&#xee;" horiz-adv-x="580" d="M141 0 L141 1055 L438 1055 L438 0 L141 0 Z M440 1253 L290 1438 L141 1253 L-87 1253 L165 1589 L415 1589 L665 1253 L440 1253 Z " />
<glyph glyph-name="idieresis" unicode="&#xef;" horiz-adv-x="580" d="M141 0 L141 1055 L438 1055 L438 0 L141 0 Z M-37 1246 L-37 1479 L199 1479 L199 1246 L-37 1246 Z M381 1246 L381 1479 L617 1479 L617 1246 L381 1246 Z " />
<glyph glyph-name="ntilde" unicode="&#xf1;" horiz-adv-x="1274" d="M1000 1532 Q944 1237 750 1237 Q669 1237 578 1301 Q496 1356 476 1356 Q419 1356 392 1246 L228 1246 Q281 1538 476 1538 Q554 1538 666 1457 Q716 1422 750 1422 Q807 1422 834 1532 L1000 1532 L1000 1532 Z M848 0 L848 588 Q848 716 811 774 Q768 838 664 838 Q594 838 538.5 809 Q483 780 438 721 L438 0 L141 0 L141 1055 L438 1055 L438 967 Q455 987 482.5 1005 Q510 1023 547 1038 Q628 1073 713 1073 Q1147 1073 1147 563 L1147 0 L848 0 Z " />
<glyph glyph-name="oacute" unicode="&#xf3;" horiz-adv-x="1151" d="M788 629 Q788 838 575 838 Q362 838 362 629 L362 426 Q362 215 575 215 Q788 215 788 426 L788 629 Z M1087 436 Q1087 232 946 106 Q877 43 784 12.5 Q691 -18 575 -18 Q343 -18 203 106 Q134 169 98.5 251 Q63 333 63 436 L63 618 Q63 722 98.5 803.5 Q134 885 203 948 Q343 1073 575 1073 Q691 1073 784 1042 Q877 1011 946 948 Q1017 885 1052 803.5 Q1087 722 1087 618 L1087 436 L1087 436 Z M655 1246 L409 1246 L636 1537 L949 1537 L655 1246 Z " />
<glyph glyph-name="ograve" unicode="&#xf2;" horiz-adv-x="1151" d="M475 1245 L180 1536 L493 1536 L720 1245 L475 1245 Z M788 629 Q788 838 575 838 Q362 838 362 629 L362 426 Q362 215 575 215 Q788 215 788 426 L788 629 Z M1087 436 Q1087 232 946 106 Q877 43 784 12.5 Q691 -18 575 -18 Q343 -18 203 106 Q134 169 98.5 251 Q63 333 63 436 L63 618 Q63 722 98.5 803.5 Q134 885 203 948 Q343 1073 575 1073 Q691 1073 784 1042 Q877 1011 946 948 Q1017 885 1052 803.5 Q1087 722 1087 618 L1087 436 L1087 436 Z " />
<glyph glyph-name="ocircumflex" unicode="&#xf4;" horiz-adv-x="1151" d="M723 1253 L573 1438 L424 1253 L196 1253 L448 1589 L698 1589 L948 1253 L723 1253 Z M788 629 Q788 838 575 838 Q362 838 362 629 L362 426 Q362 215 575 215 Q788 215 788 426 L788 629 Z M1087 436 Q1087 232 946 106 Q877 43 784 12.5 Q691 -18 575 -18 Q343 -18 203 106 Q134 169 98.5 251 Q63 333 63 436 L63 618 Q63 722 98.5 803.5 Q134 885 203 948 Q343 1073 575 1073 Q691 1073 784 1042 Q877 1011 946 948 Q1017 885 1052 803.5 Q1087 722 1087 618 L1087 436 L1087 436 Z " />
<glyph glyph-name="odieresis" unicode="&#xf6;" horiz-adv-x="1151" d="M249 1241 L249 1474 L485 1474 L485 1241 L249 1241 Z M667 1241 L667 1474 L903 1474 L903 1241 L667 1241 Z M788 629 Q788 838 575 838 Q362 838 362 629 L362 426 Q362 215 575 215 Q788 215 788 426 L788 629 Z M1087 436 Q1087 232 946 106 Q877 43 784 12.5 Q691 -18 575 -18 Q343 -18 203 106 Q134 169 98.5 251 Q63 333 63 436 L63 618 Q63 722 98.5 803.5 Q134 885 203 948 Q343 1073 575 1073 Q691 1073 784 1042 Q877 1011 946 948 Q1017 885 1052 803.5 Q1087 722 1087 618 L1087 436 L1087 436 Z " />
<glyph glyph-name="otilde" unicode="&#xf5;" horiz-adv-x="1151" d="M954 1532 Q898 1237 704 1237 Q623 1237 532 1301 Q450 1356 430 1356 Q373 1356 346 1246 L182 1246 Q235 1538 430 1538 Q508 1538 620 1457 Q670 1422 704 1422 Q761 1422 788 1532 L954 1532 L954 1532 Z M788 629 Q788 838 575 838 Q362 838 362 629 L362 426 Q362 215 575 215 Q788 215 788 426 L788 629 Z M1087 436 Q1087 232 946 106 Q877 43 784 12.5 Q691 -18 575 -18 Q343 -18 203 106 Q134 169 98.5 251 Q63 333 63 436 L63 618 Q63 722 98.5 803.5 Q134 885 203 948 Q343 1073 575 1073 Q691 1073 784 1042 Q877 1011 946 948 Q1017 885 1052 803.5 Q1087 722 1087 618 L1087 436 L1087 436 Z " />
<glyph glyph-name="uacute" unicode="&#xfa;" horiz-adv-x="1286" d="M848 0 L848 86 Q810 42 741 14 Q703 -3 662 -10.5 Q621 -18 578 -18 Q334 -18 229 123 Q141 245 141 489 L141 1055 L438 1055 L438 467 Q438 398 444.5 352 Q451 306 465 283 Q498 215 623 215 Q763 215 848 334 L848 1055 L1147 1055 L1147 0 L848 0 Z M716 1246 L470 1246 L697 1537 L1010 1537 L716 1246 Z " />
<glyph glyph-name="ugrave" unicode="&#xf9;" horiz-adv-x="1286" d="M580 1245 L285 1536 L598 1536 L825 1245 L580 1245 Z M848 0 L848 86 Q810 42 741 14 Q703 -3 662 -10.5 Q621 -18 578 -18 Q334 -18 229 123 Q141 245 141 489 L141 1055 L438 1055 L438 467 Q438 398 444.5 352 Q451 306 465 283 Q498 215 623 215 Q763 215 848 334 L848 1055 L1147 1055 L1147 0 L848 0 Z " />
<glyph glyph-name="ucircumflex" unicode="&#xfb;" horiz-adv-x="1286" d="M764 1253 L614 1438 L465 1253 L237 1253 L489 1589 L739 1589 L989 1253 L764 1253 Z M848 0 L848 86 Q810 42 741 14 Q703 -3 662 -10.5 Q621 -18 578 -18 Q334 -18 229 123 Q141 245 141 489 L141 1055 L438 1055 L438 467 Q438 398 444.5 352 Q451 306 465 283 Q498 215 623 215 Q763 215 848 334 L848 1055 L1147 1055 L1147 0 L848 0 Z " />
<glyph glyph-name="udieresis" unicode="&#xfc;" horiz-adv-x="1286" d="M297 1241 L297 1474 L533 1474 L533 1241 L297 1241 Z M715 1241 L715 1474 L951 1474 L951 1241 L715 1241 Z M848 0 L848 86 Q810 42 741 14 Q703 -3 662 -10.5 Q621 -18 578 -18 Q334 -18 229 123 Q141 245 141 489 L141 1055 L438 1055 L438 467 Q438 398 444.5 352 Q451 306 465 283 Q498 215 623 215 Q763 215 848 334 L848 1055 L1147 1055 L1147 0 L848 0 Z " />
<glyph glyph-name="dagger" unicode="&#x2020;" horiz-adv-x="1286" d="M739 647 L739 -270 L549 -270 L549 647 L115 647 L115 838 L549 838 L549 1300 L739 1300 L739 838 L1171 838 L1171 647 L739 647 Z " />
<glyph glyph-name="degree" unicode="&#xb0;" horiz-adv-x="836" d="M586 940 Q586 975 572.5 1005.5 Q559 1036 536.5 1058.5 Q514 1081 483.5 1094.5 Q453 1108 418 1108 Q384 1108 353.5 1094.5 Q323 1081 300.5 1058.5 Q278 1036 265 1005.5 Q252 975 252 940 Q252 906 265 876 Q278 846 300.5 823.5 Q323 801 353.5 787.5 Q384 774 418 774 Q453 774 483.5 787.5 Q514 801 536.5 823.5 Q559 846 572.5 876 Q586 906 586 940 Z M772 940 Q772 796 668 690 Q564 588 418 588 Q343 588 281 613.5 Q219 639 166 690 Q63 796 63 940 Q63 1087 166 1190 Q270 1294 418 1294 Q564 1294 668 1190 Q772 1088 772 940 Z " />
<glyph glyph-name="cent" unicode="&#xa2;" horiz-adv-x="1010" d="M965 217 Q917 191 855.5 172.5 Q794 154 717 141 L717 0 L420 0 L420 152 Q255 191 164 311 Q63 436 63 625 L63 672 Q63 857 162 983 Q258 1105 420 1145 L420 1276 L717 1276 L717 1153 Q786 1142 841.5 1124 Q897 1106 940 1083 L864 877 Q761 928 633 928 Q362 928 362 676 L362 616 Q362 491 442 426 Q511 369 633 369 Q705 369 769.5 381.5 Q834 394 891 420 L965 217 L965 217 Z " />
<glyph glyph-name="sterling" unicode="&#xa3;" horiz-adv-x="1237" d="M1087 999 Q1013 1028 944.5 1043.5 Q876 1059 813 1059 Q697 1059 608 983 Q518 905 518 807 L518 729 L1036 729 L1036 492 L518 492 L518 238 L1149 238 L1149 0 L78 0 L78 238 L221 238 L221 805 Q221 1010 369 1151 Q518 1294 750 1294 Q963 1294 1159 1210 L1087 999 Z " />
<glyph glyph-name="section" unicode="&#xa7;" horiz-adv-x="1219" d="M920 408 Q920 513 858 590 Q806 654 682 731 Q613 774 567 804.5 Q521 835 498 854 Q447 894 411.5 935.5 Q376 977 354 1020 Q299 947 299 834 Q299 679 520 535 Q605 479 653.5 447.5 Q702 416 713 408 Q768 366 806.5 323.5 Q845 281 866 238 Q920 301 920 408 Z M1143 424 Q1143 263 1044 137 Q996 74 934 31 Q872 -12 797 -35 Q719 -59 565 -59 L565 139 L686 139 Q678 162 647 193 Q616 224 559 262 Q519 285 479.5 309.5 Q440 334 399 358 Q78 564 78 848 Q78 970 128 1067.5 Q178 1165 281 1237 Q415 1331 653 1331 L653 1130 L535 1130 Q550 1064 713 967 Q923 840 995 768 Q1143 624 1143 424 Z " />
<glyph glyph-name="bullet" unicode="&#x2022;" horiz-adv-x="829" d="M727 526 Q727 399 635 305 Q543 215 416 215 Q286 215 193 305 Q102 399 102 526 Q102 657 193 748 Q285 840 416 840 Q545 840 635 748 Q727 658 727 526 Z " />
<glyph glyph-name="paragraph" unicode="&#xb6;" horiz-adv-x="1286" d="M975 -303 L975 920 L811 920 L811 -303 L641 -303 L641 -25 L592 -25 Q386 -25 254 98 Q115 225 115 422 L115 629 Q115 823 254 950 Q386 1073 592 1073 L1145 1073 L1145 -303 L975 -303 Z " />
<glyph glyph-name="germandbls" unicode="&#xdf;" horiz-adv-x="1622" d="M1559 389 Q1559 222 1448 109 Q1321 -18 1094 -18 Q973 -18 856.5 11 Q740 40 625 100 L700 311 Q803 263 891 239 Q979 215 1055 215 Q1264 215 1264 367 Q1264 514 1061 514 Q641 514 641 895 L641 1038 L584 1038 Q426 1038 426 913 L426 0 L129 0 L129 893 Q129 987 159.5 1058 Q190 1129 250 1180 Q310 1228 392.5 1252 Q475 1276 584 1276 L938 1276 L938 922 Q938 885 944.5 861 Q951 837 968.5 823.5 Q986 810 1017 804.5 Q1048 799 1098 799 Q1304 799 1427 696 Q1559 591 1559 389 Z " />
<glyph glyph-name="registered" unicode="&#xae;" horiz-adv-x="756" d="M428 1159 Q428 1190 391 1190 L348 1190 L348 1130 L391 1130 Q428 1130 428 1159 Z M432 938 L377 1047 L348 1047 L348 938 L260 938 L260 1274 L395 1274 Q420 1274 441.5 1265.5 Q463 1257 479 1242 Q495 1227 504.5 1206 Q514 1185 514 1159 Q514 1097 463 1065 L530 938 L432 938 Z M641 1108 Q641 1216 563 1294 Q487 1372 377 1372 Q268 1372 190 1294 Q152 1256 133.5 1209 Q115 1162 115 1108 Q115 1054 133.5 1007 Q152 960 190 922 Q229 883 276 864.5 Q323 846 377 846 Q488 846 563 922 Q641 1000 641 1108 Z M711 1108 Q711 971 612 872 Q513 776 377 776 Q308 776 249.5 800 Q191 824 141 872 Q93 922 69 980.5 Q45 1039 45 1108 Q45 1244 141 1343 Q240 1442 377 1442 Q515 1442 612 1343 Q711 1246 711 1108 Z " />
<glyph glyph-name="copyright" unicode="&#xa9;" horiz-adv-x="1468" d="M1057 543 Q1041 481 1009.5 430 Q978 379 935.5 343 Q893 307 841 287.5 Q789 268 731 268 Q595 268 498 369 Q399 470 399 606 L399 666 Q399 806 498 903 Q595 1004 731 1004 Q786 1004 836 986 Q886 968 928 935 Q970 902 1002.5 855 Q1035 808 1053 750 L877 750 Q824 842 731 842 Q698 842 668.5 828.5 Q639 815 616.5 792.5 Q594 770 580.5 739.5 Q567 709 567 674 L567 600 Q567 566 580.5 535 Q594 504 616.5 480.5 Q639 457 668.5 443.5 Q698 430 731 430 Q836 430 885 543 L1057 543 L1057 543 Z M1245 637 Q1245 850 1096 999 Q946 1149 735 1149 Q522 1149 373 999 Q223 850 223 637 Q223 426 373 276 Q522 127 735 127 Q946 127 1096 276 Q1245 426 1245 637 Z M1393 637 Q1393 365 1200 172 Q1007 -18 735 -18 Q463 -18 270 172 Q78 364 78 637 Q78 910 270 1102 Q462 1294 735 1294 Q1008 1294 1200 1102 Q1393 909 1393 637 Z " />
<glyph glyph-name="trademark" unicode="&#x2122;" horiz-adv-x="1018" d="M313 1174 L313 872 L193 872 L193 1174 L63 1174 L63 1288 L442 1288 L442 1174 L313 1174 Z M821 872 L821 1139 L727 1059 L633 1139 L633 872 L512 872 L512 1288 L616 1288 L727 1196 L838 1288 L940 1288 L940 872 L821 872 Z " />
<glyph glyph-name="acute" unicode="&#xb4;" horiz-adv-x="696" d="M324 1284 L78 1284 L305 1575 L618 1575 L324 1284 Z " />
<glyph glyph-name="dieresis" unicode="&#xa8;" horiz-adv-x="856" d="M102 1352 L102 1585 L338 1585 L338 1352 L102 1352 Z M520 1352 L520 1585 L756 1585 L756 1352 L520 1352 Z " />
<glyph glyph-name="notequal" unicode="&#x2260;" horiz-adv-x="1307" d="M627 340 L453 0 L213 0 L387 340 L129 340 L129 563 L504 563 L586 725 L129 725 L129 948 L700 948 L866 1276 L1106 1276 L938 948 L1233 948 L1233 725 L825 725 L741 563 L1233 563 L1233 340 L627 340 Z " />
<glyph glyph-name="AE" unicode="&#xc6;" horiz-adv-x="1700" d="M819 1038 L682 1038 L500 489 L819 489 L819 1038 Z M819 0 L819 268 L426 268 L338 0 L27 0 L506 1276 L1610 1276 L1610 1038 L1116 1038 L1116 780 L1610 780 L1610 543 L1116 543 L1116 238 L1610 238 L1610 0 L819 0 Z " />
<glyph glyph-name="Oslash" unicode="&#xd8;" horiz-adv-x="1303" d="M901 815 Q901 862 887 903 L514 254 Q545 234 579 224.5 Q613 215 651 215 Q757 215 829 287 Q901 358 901 459 L901 815 Z M762 1036 Q708 1059 651 1059 Q597 1059 551 1040 Q505 1021 471.5 988 Q438 955 419.5 910.5 Q401 866 401 815 L401 459 Q401 437 406 414 L762 1036 L762 1036 Z M1200 477 Q1200 269 1040 125 Q962 53 864.5 17.5 Q767 -18 651 -18 Q421 -18 262 125 Q102 270 102 477 L102 797 Q102 1004 262 1149 Q424 1294 651 1294 Q883 1294 1040 1149 Q1200 1005 1200 797 L1200 477 L1200 477 Z " />
<glyph glyph-name="plusminus" unicode="&#xb1;" horiz-adv-x="1182" d="M129 0 L129 248 L1055 248 L1055 0 L129 0 Z M715 688 L715 348 L469 348 L469 688 L129 688 L129 936 L469 936 L469 1276 L715 1276 L715 936 L1055 936 L1055 688 L715 688 Z " />
<glyph glyph-name="yen" unicode="&#xa5;" horiz-adv-x="1163" d="M766 600 L1030 600 L1030 365 L725 365 L725 0 L426 0 L426 365 L111 365 L111 600 L385 600 L-16 1276 L295 1276 L575 776 L856 1276 L1169 1276 L766 600 Z " />
<glyph glyph-name="mu" unicode="&#xb5;" horiz-adv-x="1286" d="M848 0 L848 86 Q766 -18 596 -18 Q553 -18 513 -14 Q473 -10 438 -2 L438 -395 L141 -395 L141 1055 L438 1055 L438 467 Q438 398 444.5 352 Q451 306 465 283 Q498 215 623 215 Q763 215 848 334 L848 1055 L1147 1055 L1147 0 L848 0 Z " />
<glyph glyph-name="pcircle" unicode="&#x24df;" horiz-adv-x="1468" d="M905 733 Q905 775 878 802 Q851 829 809 829 L651 829 L651 641 L809 641 Q850 641 877.5 668 Q905 695 905 733 Z M1073 733 Q1073 625 997 553 Q959 516 914 497.5 Q869 479 815 479 L651 479 L651 274 L483 274 L483 989 L815 989 Q924 989 997 915 Q1073 843 1073 733 Z M1245 637 Q1245 850 1096 999 Q946 1149 735 1149 Q522 1149 373 999 Q223 850 223 637 Q223 426 373 276 Q522 127 735 127 Q946 127 1096 276 Q1245 426 1245 637 Z M1393 637 Q1393 365 1200 172 Q1007 -18 735 -18 Q463 -18 270 172 Q78 364 78 637 Q78 910 270 1102 Q462 1294 735 1294 Q1008 1294 1200 1102 Q1393 909 1393 637 Z " />
<glyph glyph-name="f_f" unicode="&#xfb00;" horiz-adv-x="1673" d="M1450 1270 Q1294 1270 1294 1145 L1294 1055 L1536 1055 L1536 817 L1294 817 L1294 0 L995 0 L995 817 L530 817 L530 0 L231 0 L231 817 L63 817 L63 1055 L231 1055 L231 1124 Q231 1314 354 1411 Q471 1507 686 1507 L834 1507 L834 1270 L686 1270 Q530 1270 530 1145 L530 1055 L995 1055 L995 1124 Q995 1314 1118 1411 Q1238 1507 1450 1507 L1597 1507 L1597 1270 L1450 1270 Z " />
<glyph glyph-name="ordfeminine" unicode="&#xaa;" horiz-adv-x="811" d="M506 893 L381 893 Q274 893 274 819 Q274 743 365 743 Q424 743 469 774 Q506 802 506 823 L506 893 Z M506 598 L506 645 Q439 584 324 584 Q273 584 229 598 Q185 612 150 641 Q72 706 72 807 Q72 1016 334 1016 L506 1016 L506 1030 Q506 1137 346 1137 Q240 1137 160 1098 L109 1231 Q170 1263 239.5 1278.5 Q309 1294 387 1294 Q453 1294 509 1277 Q565 1260 610 1225 Q709 1149 709 1024 L709 598 L506 598 Z " />
<glyph glyph-name="ordmasculine" unicode="&#xba;" horiz-adv-x="819" d="M539 1006 Q539 1133 410 1133 Q281 1133 281 1006 L281 877 Q281 748 410 748 Q539 748 539 877 L539 1006 Z M741 883 Q741 816 717 761 Q693 706 649 666.5 Q605 627 544.5 605.5 Q484 584 410 584 Q335 584 274 605.5 Q213 627 169.5 666.5 Q126 706 102 761 Q78 816 78 883 L78 997 Q78 1065 102 1120 Q126 1175 169.5 1213.5 Q213 1252 274 1273 Q335 1294 410 1294 Q484 1294 545 1273 Q606 1252 649.5 1213.5 Q693 1175 717 1120 Q741 1065 741 997 L741 883 L741 883 Z " />
<glyph glyph-name="ae" unicode="&#xe6;" horiz-adv-x="1849" d="M719 463 L526 463 Q362 463 362 340 Q362 211 500 211 Q602 211 666 260 Q719 302 719 346 L719 463 Z M1489 627 Q1489 848 1286 848 Q1085 848 1085 627 L1489 627 L1489 627 Z M1085 434 L1085 416 Q1085 209 1321 209 Q1395 209 1476.5 230 Q1558 251 1649 293 L1735 90 Q1522 -18 1286 -18 Q1219 -18 1158.5 -4.5 Q1098 9 1048 35 Q998 61 959.5 98 Q921 135 897 182 Q786 -18 469 -18 Q307 -18 193 68 Q63 162 63 319 Q63 637 451 637 L719 637 L719 672 Q719 846 473 846 Q388 846 316 830.5 Q244 815 184 786 L113 979 Q292 1073 539 1073 Q652 1073 756 1024 Q864 974 909 897 Q932 936 970.5 968.5 Q1009 1001 1059 1024 Q1109 1047 1167 1060 Q1225 1073 1286 1073 Q1509 1073 1647 948 Q1716 885 1751 803.5 Q1786 722 1786 618 L1786 434 L1085 434 Z " />
<glyph glyph-name="oslash" unicode="&#xf8;" horiz-adv-x="1151" d="M659 825 Q624 838 575 838 Q362 838 362 629 L362 426 Q362 367 383 322 L659 825 L659 825 Z M788 629 Q788 649 785.5 668.5 Q783 688 778 705 L514 221 Q541 215 575 215 Q788 215 788 426 L788 629 Z M1087 436 Q1087 232 946 106 Q877 43 784 12.5 Q691 -18 575 -18 Q343 -18 203 106 Q134 169 98.5 251 Q63 333 63 436 L63 618 Q63 722 98.5 803.5 Q134 885 203 948 Q343 1073 575 1073 Q691 1073 784 1042 Q877 1011 946 948 Q1017 885 1052 803.5 Q1087 722 1087 618 L1087 436 L1087 436 Z " />
<glyph glyph-name="questiondown" unicode="&#xbf;" horiz-adv-x="1139" d="M1063 -96 Q841 -213 592 -213 Q384 -213 254 -127 Q102 -21 102 176 Q102 337 219 451 Q284 514 369.5 544.5 Q455 575 563 575 L815 575 L815 332 L592 332 Q544 332 507 320 Q470 308 444 285 Q395 244 395 180 Q395 110 457 68 Q489 45 536 32.5 Q583 20 643 20 Q821 20 993 109 L1063 -96 L1063 -96 Z M510 731 L510 1055 L823 1055 L823 731 L510 731 Z " />
<glyph glyph-name="exclamdown" unicode="&#xa1;" horiz-adv-x="621" d="M162 -195 L162 549 L461 549 L461 -195 L162 -195 Z M154 731 L154 1055 L467 1055 L467 731 L154 731 Z " />
<glyph glyph-name="logicalnot" unicode="&#xac;" horiz-adv-x="1257" d="M805 498 L805 811 L129 811 L129 1055 L1104 1055 L1104 498 L805 498 Z " />
<glyph glyph-name="s_t" unicode="&#xfb06;" horiz-adv-x="1907" d="M1737 0 Q1537 0 1403 106 Q1262 214 1262 385 L1262 817 L1075 817 L1075 1055 L1262 1055 L1262 1147 Q1262 1198 1244.5 1243.5 Q1227 1289 1192 1327 Q1119 1409 1012 1409 Q905 1409 831 1337 Q760 1266 760 1165 L760 1055 Q808 1045 852 1031.5 Q896 1018 938 999 L872 801 Q789 827 717 839.5 Q645 852 582 852 Q371 852 371 756 Q371 662 612 662 Q769 662 870 594 Q995 509 995 338 Q995 194 877 92 Q739 -18 506 -18 Q379 -18 275 5 Q171 28 86 76 L152 279 Q282 205 471 205 Q702 205 702 305 Q702 369 645 389 Q594 414 469 414 Q314 414 213 475 Q78 558 78 733 Q78 866 172 954 Q277 1056 463 1071 L463 1110 Q463 1320 621 1464 Q781 1610 1012 1610 Q1240 1610 1401 1464 Q1561 1319 1561 1110 L1561 1055 L1853 1055 L1853 817 L1561 817 L1561 369 Q1561 341 1574 316.5 Q1587 292 1610 275 Q1633 258 1665 248 Q1697 238 1735 238 L1853 238 L1853 0 L1737 0 Z " />
<glyph glyph-name="florin" unicode="&#x192;" horiz-adv-x="834" d="M662 1270 Q504 1270 504 1145 L504 1055 L745 1055 L745 817 L502 817 L369 -168 L72 -168 L205 817 L39 817 L39 1055 L207 1055 L207 1124 Q207 1313 328 1411 Q448 1507 662 1507 L809 1507 L809 1270 L662 1270 Z " />
<glyph glyph-name="guillemotleft" unicode="&#xab;" horiz-adv-x="1194" d="M467 37 L90 547 L467 1057 L623 952 L336 547 L623 139 L467 37 Z M934 37 L557 547 L934 1057 L1090 952 L805 547 L1090 139 L934 37 Z " />
<glyph glyph-name="guillemotright" unicode="&#xbb;" horiz-adv-x="1194" d="M258 37 L102 139 L389 547 L102 952 L258 1057 L635 547 L258 37 Z M727 37 L569 139 L856 547 L569 952 L727 1057 L1104 547 L727 37 Z " />
<glyph glyph-name="ellipsis" unicode="&#x2026;" horiz-adv-x="1257" d="M129 27 L129 260 L362 260 L362 27 L129 27 Z M512 27 L512 260 L745 260 L745 27 L512 27 Z M895 27 L895 260 L1128 260 L1128 27 L895 27 Z " />
<glyph glyph-name="nbspace" unicode="&#xa0;" horiz-adv-x="606" d="" />
<glyph glyph-name="Agrave" unicode="&#xc0;" horiz-adv-x="1321" d="M666 991 L500 489 L831 489 L666 991 Z M993 0 L905 268 L426 268 L338 0 L27 0 L506 1276 L825 1276 L1294 0 L993 0 Z M633 1423 L338 1714 L651 1714 L878 1423 L633 1423 Z " />
<glyph glyph-name="Atilde" unicode="&#xc3;" horiz-adv-x="1321" d="M1051 1714 Q995 1419 801 1419 Q720 1419 629 1483 Q547 1538 527 1538 Q470 1538 443 1428 L279 1428 Q332 1720 527 1720 Q605 1720 717 1639 Q767 1604 801 1604 Q858 1604 885 1714 L1051 1714 L1051 1714 Z M666 991 L500 489 L831 489 L666 991 Z M993 0 L905 268 L426 268 L338 0 L27 0 L506 1276 L825 1276 L1294 0 L993 0 Z " />
<glyph glyph-name="Otilde" unicode="&#xd5;" horiz-adv-x="1303" d="M1020 1714 Q964 1419 770 1419 Q689 1419 598 1483 Q516 1538 496 1538 Q439 1538 412 1428 L248 1428 Q301 1720 496 1720 Q574 1720 686 1639 Q736 1604 770 1604 Q827 1604 854 1714 L1020 1714 L1020 1714 Z M901 815 Q901 866 882.5 910.5 Q864 955 831 988 Q798 1021 752 1040 Q706 1059 651 1059 Q597 1059 551 1040 Q505 1021 471.5 988 Q438 955 419.5 910.5 Q401 866 401 815 L401 459 Q401 357 471 287 Q543 215 651 215 Q757 215 829 287 Q901 358 901 459 L901 815 Z M1200 477 Q1200 269 1040 125 Q962 53 864.5 17.5 Q767 -18 651 -18 Q421 -18 262 125 Q102 270 102 477 L102 797 Q102 1004 262 1149 Q424 1294 651 1294 Q883 1294 1040 1149 Q1200 1005 1200 797 L1200 477 L1200 477 Z " />
<glyph glyph-name="OE" unicode="&#x152;" horiz-adv-x="1700" d="M819 1038 L651 1038 Q544 1038 473 967 Q401 895 401 795 L401 479 Q401 377 471 307 Q506 272 551.5 255 Q597 238 651 238 L819 238 L819 1038 Z M651 0 Q424 0 262 145 Q102 291 102 498 L102 776 Q102 983 262 1128 Q422 1276 651 1276 L1610 1276 L1610 1038 L1116 1038 L1116 780 L1610 780 L1610 543 L1116 543 L1116 238 L1610 238 L1610 0 L651 0 Z " />
<glyph glyph-name="oe" unicode="&#x153;" horiz-adv-x="1827" d="M764 629 Q764 838 563 838 Q362 838 362 629 L362 426 Q362 215 563 215 Q764 215 764 426 L764 629 Z M1464 627 Q1464 848 1264 848 Q1061 848 1061 627 L1464 627 L1464 627 Z M1061 434 L1061 416 Q1061 209 1298 209 Q1373 209 1453.5 230 Q1534 251 1624 293 L1710 90 Q1499 -18 1264 -18 Q1209 -18 1155 -7 Q1101 4 1054.5 24 Q1008 44 971.5 71 Q935 98 913 129 Q892 96 855.5 69 Q819 42 773 22.5 Q727 3 673 -7.5 Q619 -18 563 -18 Q333 -18 199 106 Q63 233 63 436 L63 618 Q63 722 97 803.5 Q131 885 199 948 Q333 1073 563 1073 Q804 1073 913 924 Q936 959 972.5 986.5 Q1009 1014 1055.5 1033 Q1102 1052 1155.5 1062.5 Q1209 1073 1264 1073 Q1487 1073 1624 948 Q1693 885 1728 803.5 Q1763 722 1763 618 L1763 434 L1061 434 Z " />
<glyph glyph-name="endash" unicode="&#x2013;" horiz-adv-x="1106" d="M51 424 L51 672 L1055 672 L1055 424 L51 424 Z " />
<glyph glyph-name="emdash" unicode="&#x2014;" horiz-adv-x="1712" d="M51 424 L51 672 L1663 672 L1663 424 L51 424 Z " />
<glyph glyph-name="quotedblleft" unicode="&#x201c;" horiz-adv-x="1063" d="M524 1343 Q470 1311 433.5 1283.5 Q397 1256 379 1231 Q344 1184 344 1102 L344 946 L102 946 L102 1102 Q102 1253 188 1356 Q255 1431 422 1528 L524 1343 L524 1343 Z M999 1343 Q944 1311 907.5 1283.5 Q871 1256 854 1231 Q819 1184 819 1102 L819 946 L578 946 L578 1102 Q578 1177 599 1241 Q620 1305 664 1356 Q729 1433 897 1528 L999 1343 L999 1343 Z " />
<glyph glyph-name="quotedblright" unicode="&#x201d;" horiz-adv-x="1063" d="M485 1352 Q485 1199 401 1098 Q333 1017 168 926 L63 1108 Q119 1140 155.5 1168.5 Q192 1197 211 1223 Q244 1268 244 1352 L244 1507 L485 1507 L485 1352 L485 1352 Z M961 1352 Q961 1199 874 1098 Q809 1017 641 926 L539 1108 Q594 1140 630.5 1168.5 Q667 1197 684 1223 Q719 1269 719 1352 L719 1507 L961 1507 L961 1352 L961 1352 Z " />
<glyph glyph-name="quoteleft" unicode="&#x2018;" horiz-adv-x="590" d="M524 1343 Q470 1311 433.5 1283.5 Q397 1256 379 1231 Q344 1184 344 1102 L344 946 L102 946 L102 1102 Q102 1253 188 1356 Q255 1431 422 1528 L524 1343 L524 1343 Z " />
<glyph glyph-name="quoteright" unicode="&#x2019;" horiz-adv-x="590" d="M485 1352 Q485 1199 401 1098 Q333 1017 168 926 L63 1108 Q119 1140 155.5 1168.5 Q192 1197 211 1223 Q244 1268 244 1352 L244 1507 L485 1507 L485 1352 L485 1352 Z " />
<glyph glyph-name="divide" unicode="&#xf7;" horiz-adv-x="1315" d="M541 37 L541 270 L774 270 L774 37 L541 37 Z M129 401 L129 647 L1188 647 L1188 401 L129 401 Z M541 782 L541 1018 L774 1018 L774 782 L541 782 Z " />
<glyph glyph-name="ydieresis" unicode="&#xff;" horiz-adv-x="1157" d="M239 1243 L239 1476 L475 1476 L475 1243 L239 1243 Z M657 1243 L657 1476 L893 1476 L893 1243 L657 1243 Z M618 -25 Q595 -73 552.5 -111 Q510 -149 449 -178 Q336 -236 199 -236 L82 -236 L82 8 L199 8 Q262 11 322 57 Q345 76 360.5 97 Q376 118 387 141 L440 250 L27 1055 L328 1055 L584 528 L842 1055 L1143 1055 L618 -25 Z " />
<glyph glyph-name="Ydieresis" unicode="&#x178;" horiz-adv-x="1239" d="M292 1430 L292 1663 L528 1663 L528 1430 L292 1430 Z M710 1430 L710 1663 L946 1663 L946 1430 L710 1430 Z M768 530 L768 0 L471 0 L471 530 L27 1276 L340 1276 L621 776 L901 1276 L1214 1276 L768 530 Z " />
<glyph glyph-name="fraction" unicode="&#x2044;" horiz-adv-x="1061" d="M197 0 L51 0 L864 1276 L1010 1276 L197 0 Z " />
<glyph glyph-name="currency" unicode="&#xa4;" horiz-adv-x="1147" d="M1057 63 Q976 21 871 1.5 Q766 -18 633 -18 Q517 -18 421 17.5 Q325 53 250 125 Q102 267 102 473 L102 805 Q102 1009 250 1151 Q325 1223 421 1258.5 Q517 1294 633 1294 Q843 1294 1042 1210 L969 999 Q894 1028 826.5 1043.5 Q759 1059 696 1059 Q578 1059 489 983 Q399 905 399 807 L399 764 L991 764 L991 526 L399 526 L399 463 Q399 362 489 287 Q581 215 696 215 Q765 215 837.5 230 Q910 245 985 274 L1057 63 Z " />
<glyph glyph-name="guilsinglleft" unicode="&#x2039;" horiz-adv-x="725" d="M467 37 L90 547 L467 1057 L623 952 L336 547 L623 139 L467 37 Z " />
<glyph glyph-name="guilsinglright" unicode="&#x203a;" horiz-adv-x="725" d="M258 37 L102 139 L389 547 L102 952 L258 1057 L635 547 L258 37 Z " />
<glyph glyph-name="daggerdbl" unicode="&#x2021;" horiz-adv-x="1286" d="M739 190 L739 -270 L549 -270 L549 190 L115 190 L115 381 L549 381 L549 647 L115 647 L115 838 L549 838 L549 1300 L739 1300 L739 838 L1171 838 L1171 647 L739 647 L739 381 L1171 381 L1171 190 L739 190 Z " />
<glyph glyph-name="periodcentered" unicode="&#xb7;" horiz-adv-x="467" d="M78 414 L78 735 L389 735 L389 414 L78 414 Z " />
<glyph glyph-name="quotesinglbase" unicode="&#x201a;" horiz-adv-x="590" d="M485 84 Q485 -66 401 -168 Q367 -208 309.5 -251 Q252 -294 168 -340 L63 -158 Q119 -126 155.5 -97.5 Q192 -69 211 -43 Q244 4 244 84 L244 240 L485 240 L485 84 L485 84 Z " />
<glyph glyph-name="quotedblbase" unicode="&#x201e;" horiz-adv-x="1063" d="M485 84 Q485 -66 401 -168 Q367 -208 309.5 -251 Q252 -294 168 -340 L63 -158 Q119 -126 155.5 -97.5 Q192 -69 211 -43 Q244 4 244 84 L244 240 L485 240 L485 84 L485 84 Z M961 84 Q961 -66 874 -168 Q842 -208 784 -251 Q726 -294 641 -340 L539 -158 Q594 -126 630.5 -97.5 Q667 -69 684 -43 Q719 4 719 84 L719 240 L961 240 L961 84 L961 84 Z " />
<glyph glyph-name="perthousand" unicode="&#x2030;" horiz-adv-x="1917" d="M129 711 L129 1032 L442 1032 L442 711 L129 711 Z M569 0 L330 0 L877 1059 L1116 1059 L569 0 Z M981 27 L981 348 L1296 348 L1296 27 L981 27 Z M1475 27 L1475 348 L1788 348 L1788 27 L1475 27 Z " />
<glyph glyph-name="Acircumflex" unicode="&#xc2;" horiz-adv-x="1321" d="M832 1439 L682 1624 L533 1439 L305 1439 L557 1775 L807 1775 L1057 1439 L832 1439 Z M666 991 L500 489 L831 489 L666 991 Z M993 0 L905 268 L426 268 L338 0 L27 0 L506 1276 L825 1276 L1294 0 L993 0 Z " />
<glyph glyph-name="Ecircumflex" unicode="&#xca;" horiz-adv-x="1110" d="M721 1439 L571 1624 L422 1439 L194 1439 L446 1775 L696 1775 L946 1439 L721 1439 Z M154 0 L154 1276 L1022 1276 L1022 1038 L453 1038 L453 780 L1022 780 L1022 543 L453 543 L453 238 L1022 238 L1022 0 L154 0 Z " />
<glyph glyph-name="Aacute" unicode="&#xc1;" horiz-adv-x="1321" d="M736 1423 L490 1423 L717 1714 L1030 1714 L736 1423 Z M666 991 L500 489 L831 489 L666 991 Z M993 0 L905 268 L426 268 L338 0 L27 0 L506 1276 L825 1276 L1294 0 L993 0 Z " />
<glyph glyph-name="Edieresis" unicode="&#xcb;" horiz-adv-x="1110" d="M256 1430 L256 1663 L492 1663 L492 1430 L256 1430 Z M674 1430 L674 1663 L910 1663 L910 1430 L674 1430 Z M154 0 L154 1276 L1022 1276 L1022 1038 L453 1038 L453 780 L1022 780 L1022 543 L453 543 L453 238 L1022 238 L1022 0 L154 0 Z " />
<glyph glyph-name="Egrave" unicode="&#xc8;" horiz-adv-x="1110" d="M154 0 L154 1276 L1022 1276 L1022 1038 L453 1038 L453 780 L1022 780 L1022 543 L453 543 L453 238 L1022 238 L1022 0 L154 0 Z M516 1423 L221 1714 L534 1714 L761 1423 L516 1423 Z " />
<glyph glyph-name="Iacute" unicode="&#xcd;" horiz-adv-x="604" d="M154 0 L154 1276 L453 1276 L453 0 L154 0 Z M387 1423 L141 1423 L368 1714 L681 1714 L387 1423 Z " />
<glyph glyph-name="Icircumflex" unicode="&#xce;" horiz-adv-x="604" d="M154 0 L154 1276 L453 1276 L453 0 L154 0 Z M453 1439 L303 1624 L154 1439 L-74 1439 L178 1775 L428 1775 L678 1439 L453 1439 Z " />
<glyph glyph-name="Idieresis" unicode="&#xcf;" horiz-adv-x="604" d="M154 0 L154 1276 L453 1276 L453 0 L154 0 Z M-25 1430 L-25 1663 L211 1663 L211 1430 L-25 1430 Z M393 1430 L393 1663 L629 1663 L629 1430 L393 1430 Z " />
<glyph glyph-name="Igrave" unicode="&#xcc;" horiz-adv-x="604" d="M154 0 L154 1276 L453 1276 L453 0 L154 0 Z M199 1423 L-96 1714 L217 1714 L444 1423 L199 1423 Z " />
<glyph glyph-name="Oacute" unicode="&#xd3;" horiz-adv-x="1303" d="M764 1423 L518 1423 L745 1714 L1058 1714 L764 1423 Z M901 815 Q901 866 882.5 910.5 Q864 955 831 988 Q798 1021 752 1040 Q706 1059 651 1059 Q597 1059 551 1040 Q505 1021 471.5 988 Q438 955 419.5 910.5 Q401 866 401 815 L401 459 Q401 357 471 287 Q543 215 651 215 Q757 215 829 287 Q901 358 901 459 L901 815 Z M1200 477 Q1200 269 1040 125 Q962 53 864.5 17.5 Q767 -18 651 -18 Q421 -18 262 125 Q102 270 102 477 L102 797 Q102 1004 262 1149 Q424 1294 651 1294 Q883 1294 1040 1149 Q1200 1005 1200 797 L1200 477 L1200 477 Z " />
<glyph glyph-name="Ocircumflex" unicode="&#xd4;" horiz-adv-x="1303" d="M817 1439 L667 1624 L518 1439 L290 1439 L542 1775 L792 1775 L1042 1439 L817 1439 Z M901 815 Q901 866 882.5 910.5 Q864 955 831 988 Q798 1021 752 1040 Q706 1059 651 1059 Q597 1059 551 1040 Q505 1021 471.5 988 Q438 955 419.5 910.5 Q401 866 401 815 L401 459 Q401 357 471 287 Q543 215 651 215 Q757 215 829 287 Q901 358 901 459 L901 815 Z M1200 477 Q1200 269 1040 125 Q962 53 864.5 17.5 Q767 -18 651 -18 Q421 -18 262 125 Q102 270 102 477 L102 797 Q102 1004 262 1149 Q424 1294 651 1294 Q883 1294 1040 1149 Q1200 1005 1200 797 L1200 477 L1200 477 Z " />
<glyph glyph-name="apple" unicode="&#xf8ff;" horiz-adv-x="2707" d="M1249 1180 L1151 1180 Q1125 1180 1103 1178 Q1081 1176 1063 1171 Q1015 1162 977 1137 Q889 1079 889 954 L889 670 L1032 670 L1032 954 Q1032 993 1051 1016.5 Q1070 1040 1108 1051 Q1129 1057 1151 1057 L1249 1057 L1249 1180 Z M1362 985 L1090 985 L1090 862 L1362 862 L1362 985 Z M1923 729 Q1923 792 1901.5 837 Q1880 882 1837 911 Q1802 934 1759 945 Q1716 956 1665 956 L1653 956 Q1607 956 1573 981 Q1536 1008 1536 1059 L1536 1180 L1393 1180 L1393 1059 Q1393 999 1414.5 953.5 Q1436 908 1481 879 Q1515 856 1557.5 843.5 Q1600 831 1653 831 L1665 831 Q1713 831 1749 803 Q1784 774 1784 729 L1784 670 L1923 670 L1923 729 Z M2425 954 Q2425 1078 2335 1137 Q2269 1180 2163 1180 L1974 1180 L1974 1057 L2163 1057 Q2211 1057 2245 1032 Q2281 1005 2281 954 L2281 897 Q2281 851 2245 819 Q2228 805 2207 799 Q2186 793 2163 793 L1974 793 L1974 670 L2163 670 Q2215 670 2258 681 Q2301 692 2335 715 Q2425 774 2425 897 L2425 954 Z M563 0 L162 401 L162 1276 L2546 1276 L2546 0 L563 0 Z " />
<glyph glyph-name="Ograve" unicode="&#xd2;" horiz-adv-x="1303" d="M901 815 Q901 866 882.5 910.5 Q864 955 831 988 Q798 1021 752 1040 Q706 1059 651 1059 Q597 1059 551 1040 Q505 1021 471.5 988 Q438 955 419.5 910.5 Q401 866 401 815 L401 459 Q401 357 471 287 Q543 215 651 215 Q757 215 829 287 Q901 358 901 459 L901 815 Z M1200 477 Q1200 269 1040 125 Q962 53 864.5 17.5 Q767 -18 651 -18 Q421 -18 262 125 Q102 270 102 477 L102 797 Q102 1004 262 1149 Q424 1294 651 1294 Q883 1294 1040 1149 Q1200 1005 1200 797 L1200 477 L1200 477 Z M590 1423 L295 1714 L608 1714 L835 1423 L590 1423 Z " />
<glyph glyph-name="Uacute" unicode="&#xda;" horiz-adv-x="1405" d="M781 1423 L535 1423 L762 1714 L1075 1714 L781 1423 Z M1251 477 Q1251 271 1092 127 Q1013 55 915.5 19.5 Q818 -16 702 -16 Q470 -16 311 127 Q154 272 154 477 L154 1276 L453 1276 L453 459 Q453 409 472 364.5 Q491 320 524.5 287 Q558 254 603.5 234.5 Q649 215 702 215 Q809 215 881 287 Q952 358 952 459 L952 1276 L1251 1276 L1251 477 L1251 477 Z " />
<glyph glyph-name="Ucircumflex" unicode="&#xdb;" horiz-adv-x="1405" d="M854 1439 L704 1624 L555 1439 L327 1439 L579 1775 L829 1775 L1079 1439 L854 1439 Z M1251 477 Q1251 271 1092 127 Q1013 55 915.5 19.5 Q818 -16 702 -16 Q470 -16 311 127 Q154 272 154 477 L154 1276 L453 1276 L453 459 Q453 409 472 364.5 Q491 320 524.5 287 Q558 254 603.5 234.5 Q649 215 702 215 Q809 215 881 287 Q952 358 952 459 L952 1276 L1251 1276 L1251 477 L1251 477 Z " />
<glyph glyph-name="Ugrave" unicode="&#xd9;" horiz-adv-x="1405" d="M1251 477 Q1251 271 1092 127 Q1013 55 915.5 19.5 Q818 -16 702 -16 Q470 -16 311 127 Q154 272 154 477 L154 1276 L453 1276 L453 459 Q453 409 472 364.5 Q491 320 524.5 287 Q558 254 603.5 234.5 Q649 215 702 215 Q809 215 881 287 Q952 358 952 459 L952 1276 L1251 1276 L1251 477 L1251 477 Z M649 1423 L354 1714 L667 1714 L894 1423 L649 1423 Z " />
<glyph glyph-name="dotlessi" unicode="&#x131;" horiz-adv-x="580" d="M141 0 L141 1055 L438 1055 L438 0 L141 0 Z " />
<glyph glyph-name="circumflex" unicode="&#x2c6;" horiz-adv-x="881" d="M590 1296 L440 1481 L291 1296 L63 1296 L315 1632 L565 1632 L815 1296 L590 1296 Z " />
<glyph glyph-name="tilde" unicode="&#x2dc;" horiz-adv-x="926" d="M850 1591 Q794 1296 600 1296 Q519 1296 428 1360 Q346 1415 326 1415 Q269 1415 242 1305 L78 1305 Q131 1597 326 1597 Q404 1597 516 1516 Q566 1481 600 1481 Q657 1481 684 1591 L850 1591 L850 1591 Z " />
<glyph glyph-name="overscore" unicode="&#xaf;" horiz-adv-x="688" d="M78 1313 L78 1513 L610 1513 L610 1313 L78 1313 Z " />
<glyph glyph-name="breve" unicode="&#x2d8;" horiz-adv-x="887" d="M809 1653 Q809 1485 711 1376 Q614 1274 475 1274 L410 1274 Q338 1274 280 1299.5 Q222 1325 174 1376 Q78 1486 78 1653 L248 1653 Q251 1552 297 1497 Q342 1446 410 1446 L475 1446 Q545 1446 590 1497 Q636 1552 639 1653 L809 1653 L809 1653 Z " />
<glyph glyph-name="dotaccent" unicode="&#x2d9;" horiz-adv-x="453" d="M109 1352 L109 1585 L342 1585 L342 1352 L109 1352 Z " />
<glyph glyph-name="ring" unicode="&#x2da;" horiz-adv-x="639" d="M426 1432 Q426 1454 417.5 1473.5 Q409 1493 394.5 1507 Q380 1521 360.5 1529.5 Q341 1538 319 1538 Q274 1538 243.5 1507.5 Q213 1477 213 1432 Q213 1410 221.5 1390.5 Q230 1371 244 1356.5 Q258 1342 277.5 1333.5 Q297 1325 319 1325 Q341 1325 360.5 1333.5 Q380 1342 394.5 1356.5 Q409 1371 417.5 1390.5 Q426 1410 426 1432 Z M573 1432 Q573 1328 500 1251 Q427 1178 319 1178 Q212 1178 139 1251 Q66 1328 66 1432 Q66 1539 139 1612 Q212 1688 319 1688 Q427 1688 500 1612 Q573 1539 573 1432 Z " />
<glyph glyph-name="cedilla" unicode="&#xb8;" horiz-adv-x="696" d="M391 -369 L78 -369 L373 -78 L618 -78 L391 -369 Z " />
<glyph glyph-name="hungarumlaut" unicode="&#x2dd;" horiz-adv-x="1135" d="M279 1284 L78 1284 L342 1616 L614 1616 L279 1284 Z M723 1284 L520 1284 L786 1616 L1057 1616 L723 1284 Z " />
<glyph glyph-name="ogonek" unicode="&#x2db;" horiz-adv-x="696" d="M305 -369 L78 -78 L324 -78 L618 -369 L305 -369 Z " />
<glyph glyph-name="caron" unicode="&#x2c7;" horiz-adv-x="881" d="M565 1296 L315 1296 L63 1632 L291 1632 L440 1450 L590 1632 L815 1632 L565 1296 Z " />
<glyph glyph-name="Lslash" unicode="&#x141;" horiz-adv-x="1071" d="M170 0 L170 555 L27 438 L27 678 L170 795 L170 1276 L469 1276 L469 1030 L637 1161 L637 924 L469 791 L469 238 L1032 238 L1032 0 L170 0 Z " />
<glyph glyph-name="lslash" unicode="&#x142;" horiz-adv-x="649" d="M469 969 L469 0 L170 0 L170 733 L27 616 L27 856 L170 973 L170 1507 L469 1507 L469 1208 L637 1339 L637 1102 L469 969 Z " />
<glyph glyph-name="Scaron" unicode="&#x160;" horiz-adv-x="1184" d="M1094 389 Q1094 222 971 109 Q835 -18 606 -18 Q461 -18 333 11 Q205 40 90 100 L166 311 Q268 263 364 239 Q460 215 553 215 Q799 215 799 367 Q799 440 723 479 Q655 514 559 514 Q331 514 205 631 Q90 735 90 895 Q90 1067 211 1176 Q342 1294 578 1294 Q712 1294 823.5 1271 Q935 1248 1026 1200 L956 991 Q799 1059 637 1059 Q385 1059 385 922 Q385 799 612 799 Q829 799 956 696 Q1094 591 1094 389 Z M704 1437 L454 1437 L202 1773 L430 1773 L579 1591 L729 1773 L954 1773 L704 1437 Z " />
<glyph glyph-name="scaron" unicode="&#x161;" horiz-adv-x="1061" d="M995 338 Q995 194 877 92 Q739 -18 506 -18 Q379 -18 275 5 Q171 28 86 76 L152 279 Q282 205 471 205 Q702 205 702 305 Q702 369 645 389 Q594 414 469 414 Q314 414 213 475 Q78 558 78 733 Q78 875 188 971 Q313 1073 528 1073 Q649 1073 751 1055 Q853 1037 938 999 L872 801 Q789 827 717 839.5 Q645 852 582 852 Q371 852 371 756 Q371 662 612 662 Q769 662 870 594 Q995 509 995 338 Z M645 1255 L395 1255 L143 1591 L371 1591 L520 1409 L670 1591 L895 1591 L645 1255 Z " />
<glyph glyph-name="Zcaron" unicode="&#x17d;" horiz-adv-x="1204" d="M90 0 L90 186 L694 1038 L137 1038 L137 1276 L1083 1276 L1083 1090 L475 238 L1114 238 L1114 0 L90 0 Z M723 1429 L473 1429 L221 1765 L449 1765 L598 1583 L748 1765 L973 1765 L723 1429 Z " />
<glyph glyph-name="zcaron" unicode="&#x17e;" horiz-adv-x="1061" d="M78 0 L78 182 L584 817 L78 817 L78 1055 L983 1055 L983 870 L471 238 L983 238 L983 0 L78 0 Z M651 1257 L401 1257 L149 1593 L377 1593 L526 1411 L676 1593 L901 1593 L651 1257 Z " />
<glyph glyph-name="brokenbar" unicode="&#xa6;" horiz-adv-x="535" d="M178 -494 L178 299 L356 299 L356 -494 L178 -494 Z M178 684 L178 1479 L356 1479 L356 684 L178 684 Z " />
<glyph glyph-name="Eth" unicode="&#xd0;" horiz-adv-x="1335" d="M936 807 Q936 855 917.5 896.5 Q899 938 866 968 Q833 998 786.5 1015 Q740 1032 684 1032 L451 1032 L451 780 L688 780 L688 543 L451 543 L451 244 L684 244 Q740 244 786.5 261 Q833 278 866 308 Q899 338 917.5 379.5 Q936 421 936 469 L936 807 Z M1233 479 Q1233 273 1073 135 Q914 0 684 0 L154 0 L154 1276 L684 1276 Q915 1276 1073 1139 Q1233 1001 1233 797 L1233 479 L1233 479 Z " />
<glyph glyph-name="eth" unicode="&#xf0;" horiz-adv-x="1151" d="M788 461 Q788 670 575 670 Q362 670 362 461 L362 426 Q362 215 575 215 Q788 215 788 426 L788 461 Z M1087 436 Q1087 232 946 106 Q877 43 784 12.5 Q691 -18 575 -18 Q343 -18 203 106 Q134 169 98.5 251 Q63 333 63 436 L63 451 Q63 652 188 780 Q307 905 485 905 Q613 905 699.5 865.5 Q786 826 831 745 Q808 818 772 895.5 Q736 973 688 1055 L465 1055 L465 1276 L1075 1276 L1075 1055 L975 1055 Q1032 917 1059.5 787 Q1087 657 1087 532 L1087 436 L1087 436 Z " />
<glyph glyph-name="Yacute" unicode="&#xdd;" horiz-adv-x="1239" d="M768 530 L768 0 L471 0 L471 530 L27 1276 L340 1276 L621 776 L901 1276 L1214 1276 L768 530 Z M707 1427 L461 1427 L688 1718 L1001 1718 L707 1427 Z " />
<glyph glyph-name="Thorn" unicode="&#xde;" horiz-adv-x="1241" d="M881 647 Q881 710 842 756 Q800 803 735 803 L453 803 L453 494 L735 494 Q801 494 842 541 Q881 583 881 647 Z M1178 651 Q1178 491 1069 379 Q955 256 770 256 L453 256 L453 0 L154 0 L154 1276 L453 1276 L453 1044 L770 1044 Q954 1044 1069 926 Q1178 811 1178 651 Z " />
<glyph glyph-name="thorn" unicode="&#xfe;" horiz-adv-x="1210" d="M848 588 Q848 838 664 838 Q594 838 538.5 809 Q483 780 438 721 L438 336 Q483 276 538.5 245.5 Q594 215 664 215 Q848 215 848 467 L848 588 Z M1147 489 Q1147 255 1024 117 Q904 -18 715 -18 Q527 -18 438 86 L438 -451 L141 -451 L141 1276 L438 1276 L438 967 Q522 1073 715 1073 Q906 1073 1024 940 Q1147 802 1147 563 L1147 489 L1147 489 Z " />
<glyph glyph-name="onesuperior" unicode="&#xb9;" horiz-adv-x="881" d="M129 446 L129 610 L367 610 L367 1110 L129 1110 L129 1276 L569 1276 L569 610 L752 610 L752 446 L129 446 Z " />
<glyph glyph-name="twosuperior" unicode="&#xb2;" horiz-adv-x="891" d="M764 1030 Q764 926 686 854 Q602 776 463 776 L424 776 Q405 776 388 768 Q371 760 358 746.5 Q345 733 337.5 715.5 Q330 698 330 680 L330 616 L758 616 L758 453 L129 453 L129 680 Q129 736 149 784 Q169 832 206 867.5 Q243 903 294 923.5 Q345 944 406 944 L446 944 Q563 944 563 1028 Q563 1130 412 1130 Q302 1130 184 1071 L137 1217 Q286 1294 446 1294 Q578 1294 666 1235 Q764 1164 764 1030 Z " />
<glyph glyph-name="threesuperior" unicode="&#xb3;" horiz-adv-x="901" d="M772 717 Q772 603 688 522 Q592 432 436 432 Q274 432 129 512 L176 653 Q292 598 401 598 Q487 598 530 637 Q569 669 569 719 Q569 836 418 836 L287 836 L287 948 L467 1108 L168 1108 L168 1276 L735 1276 L735 1145 L567 975 Q617 961 655 936.5 Q693 912 721 874 Q747 839 759.5 800.5 Q772 762 772 717 Z " />
<glyph glyph-name="onehalf" unicode="&#xbd;" horiz-adv-x="2025" d="M707 0 L561 0 L1374 1276 L1520 1276 L707 0 Z M129 446 L129 610 L367 610 L367 1110 L129 1110 L129 1276 L569 1276 L569 610 L752 610 L752 446 L129 446 Z M1896 575 Q1896 523 1877.5 478.5 Q1859 434 1821 399 Q1736 322 1597 322 L1556 322 Q1538 322 1521 313.5 Q1504 305 1491.5 291.5 Q1479 278 1471.5 260 Q1464 242 1464 223 L1464 164 L1892 164 L1892 0 L1262 0 L1262 223 Q1262 281 1282 329.5 Q1302 378 1338.5 413.5 Q1375 449 1426.5 469 Q1478 489 1540 489 L1579 489 Q1698 489 1698 573 Q1698 676 1546 676 Q1435 676 1319 618 L1272 762 Q1420 842 1579 842 Q1713 842 1798 778 Q1896 708 1896 575 Z " />
<glyph glyph-name="onequarter" unicode="&#xbc;" horiz-adv-x="1909" d="M1485 575 L1272 322 L1272 293 L1485 293 L1485 575 Z M707 0 L561 0 L1374 1276 L1520 1276 L707 0 Z M1688 129 L1688 0 L1485 0 L1485 129 L1096 129 L1096 356 L1495 827 L1688 827 L1688 293 L1782 293 L1782 129 L1688 129 Z M129 446 L129 610 L367 610 L367 1110 L129 1110 L129 1276 L569 1276 L569 610 L752 610 L752 446 L129 446 Z " />
<glyph glyph-name="threequarters" unicode="&#xbe;" horiz-adv-x="1841" d="M1419 575 L1206 322 L1206 293 L1419 293 L1419 575 Z M641 0 L496 0 L1309 1276 L1454 1276 L641 0 Z M1622 129 L1622 0 L1419 0 L1419 129 L1030 129 L1030 356 L1430 827 L1622 827 L1622 293 L1714 293 L1714 129 L1622 129 Z M772 717 Q772 603 688 522 Q592 432 436 432 Q274 432 129 512 L176 653 Q292 598 401 598 Q487 598 530 637 Q569 669 569 719 Q569 836 418 836 L287 836 L287 948 L467 1108 L168 1108 L168 1276 L735 1276 L735 1145 L567 975 Q617 961 655 936.5 Q693 912 721 874 Q747 839 759.5 800.5 Q772 762 772 717 Z " />
<glyph glyph-name="fi" unicode="&#xfb01;" horiz-adv-x="1362" d="M922 0 L922 817 L530 817 L530 0 L231 0 L231 817 L63 817 L63 1055 L231 1055 L231 1124 Q231 1314 354 1411 Q471 1507 686 1507 L1159 1507 L1159 1270 L686 1270 Q530 1270 530 1145 L530 1055 L1221 1055 L1221 0 L922 0 Z " />
<glyph glyph-name="fl" unicode="&#xfb02;" horiz-adv-x="1411" d="M973 0 L973 1270 L686 1270 Q530 1270 530 1145 L530 1055 L772 1055 L772 817 L530 817 L530 0 L231 0 L231 817 L63 817 L63 1055 L231 1055 L231 1124 Q231 1321 365 1419 Q425 1464 504.5 1485.5 Q584 1507 686 1507 L1270 1507 L1270 0 L973 0 Z " />
<glyph glyph-name="f_f_l" unicode="&#xfb04;" horiz-adv-x="2175" d="M1735 0 L1735 1270 L1450 1270 Q1294 1270 1294 1145 L1294 1055 L1536 1055 L1536 817 L1294 817 L1294 0 L995 0 L995 817 L530 817 L530 0 L231 0 L231 817 L63 817 L63 1055 L231 1055 L231 1124 Q231 1314 354 1411 Q471 1507 686 1507 L834 1507 L834 1270 L686 1270 Q530 1270 530 1145 L530 1055 L995 1055 L995 1124 Q995 1321 1128 1419 Q1188 1464 1268 1485.5 Q1348 1507 1450 1507 L2034 1507 L2034 0 L1735 0 Z " />
<glyph glyph-name="f_f_i" unicode="&#xfb03;" horiz-adv-x="2126" d="M1686 0 L1686 817 L1294 817 L1294 0 L995 0 L995 817 L530 817 L530 0 L231 0 L231 817 L63 817 L63 1055 L231 1055 L231 1124 Q231 1314 354 1411 Q471 1507 686 1507 L834 1507 L834 1270 L686 1270 Q530 1270 530 1145 L530 1055 L995 1055 L995 1124 Q995 1314 1118 1411 Q1238 1507 1450 1507 L1923 1507 L1923 1270 L1450 1270 Q1294 1270 1294 1145 L1294 1055 L1985 1055 L1985 0 L1686 0 Z " />
<glyph glyph-name="yacute" unicode="&#xfd;" horiz-adv-x="1157" d="M618 -25 Q595 -73 552.5 -111 Q510 -149 449 -178 Q336 -236 199 -236 L82 -236 L82 8 L199 8 Q262 11 322 57 Q345 76 360.5 97 Q376 118 387 141 L440 250 L27 1055 L328 1055 L584 528 L842 1055 L1143 1055 L618 -25 Z M707 1284 L461 1284 L688 1575 L1001 1575 L707 1284 Z " />
<glyph glyph-name="multiply" unicode="&#xd7;" horiz-adv-x="1238" d="M1148 175 L974 0 L619 355 L264 0 L90 175 L444 529 L90 884 L264 1059 L619 704 L974 1059 L1148 884 L794 529 L1148 175 Z " />
<glyph glyph-name="Ohm" unicode="&#x2126;" horiz-adv-x="3553" d="M938 -430 Q938 -180 795 -180 Q651 -180 651 -430 Q651 -680 795 -680 Q938 -680 938 -430 Z M1958 -326 Q1958 -190 1831 -190 L1788 -190 L1788 -430 Q1799 -438 1812.5 -441 Q1826 -444 1841 -444 Q1958 -444 1958 -326 Z M2210 -291 L2208 -291 L2138 -506 L2281 -506 L2210 -291 Z M2810 926 Q2810 1107 2767 1171 Q2718 1243 2576 1243 L2431 1243 L2431 614 Q2448 609 2467.5 607.5 Q2487 606 2507 606 Q2666 606 2738 684 Q2810 762 2810 926 Z M483 -672 Q483 -635 459 -635 Q457 -635 445 -641.5 Q433 -648 412 -662 Q370 -690 328 -690 Q234 -690 168 -614 Q102 -536 102 -430 Q102 -322 168 -244 Q235 -168 328 -168 Q348 -168 368 -174.5 Q388 -181 408 -195 Q446 -221 457 -221 Q483 -221 483 -190 L494 -190 L494 -342 L483 -342 Q483 -311 470.5 -281.5 Q458 -252 437 -229.5 Q416 -207 388 -193.5 Q360 -180 328 -180 Q184 -180 184 -430 Q184 -680 328 -680 Q393 -680 438 -625 Q483 -574 483 -504 L494 -504 L494 -672 L483 -672 Z M1020 -430 Q1020 -537 952 -614 Q889 -690 795 -690 Q703 -690 637 -614 Q571 -536 571 -430 Q571 -322 637 -244 Q704 -168 795 -168 Q888 -168 952 -244 Q1020 -321 1020 -430 Z M1423 -680 L1423 -668 L1491 -668 L1491 -217 L1489 -217 L1317 -668 L1311 -668 L1135 -227 L1133 -227 L1133 -608 Q1133 -624 1134 -634 Q1135 -644 1137 -649 Q1146 -668 1176 -668 L1204 -668 L1204 -680 L1059 -680 L1059 -668 L1077 -668 Q1120 -668 1120 -608 L1120 -190 L1059 -190 L1059 -180 L1196 -180 L1346 -557 L1491 -180 L1626 -180 L1626 -190 L1563 -190 L1563 -668 L1626 -668 L1626 -680 L1423 -680 Z M2034 -317 Q2034 -387 1976 -424 Q1928 -457 1853 -457 Q1833 -457 1816.5 -454 Q1800 -451 1788 -444 L1788 -668 L1860 -668 L1860 -680 L1645 -680 L1645 -668 L1714 -668 L1714 -190 L1645 -190 L1645 -180 L1847 -180 Q2034 -180 2034 -317 Z M1438 0 Q1415 74 1370 74 Q1362 74 1251 23 Q1143 -27 1014 -27 Q754 -27 592 172 Q517 266 478.5 376 Q440 486 440 616 Q440 748 480 863.5 Q520 979 598 1081 Q774 1307 1036 1307 Q1073 1307 1119.5 1295 Q1166 1283 1223 1260 Q1280 1237 1315.5 1224.5 Q1351 1212 1366 1212 Q1424 1212 1427 1268 L1458 1268 L1458 840 L1427 840 Q1403 994 1298 1126 Q1183 1274 1036 1274 Q745 1274 745 639 Q745 471 762 351 Q779 231 811 156 Q879 4 1030 4 Q1189 4 1307 137 Q1403 250 1427 383 L1438 444 L1464 444 L1464 0 L1438 0 Z M2267 -680 L2267 -668 L2337 -668 L2286 -516 L2134 -516 L2105 -606 Q2093 -641 2093 -649 Q2093 -668 2126 -668 L2163 -668 L2163 -680 L2015 -680 L2015 -668 L2040 -668 Q2069 -668 2085 -627 L2236 -168 L2245 -168 L2417 -668 L2474 -668 L2474 -680 L2267 -680 Z M1853 72 Q1853 53 1845.5 36 Q1838 19 1825.5 6.5 Q1813 -6 1796 -13 Q1779 -20 1761 -20 Q1742 -20 1725 -13 Q1708 -6 1695.5 6.5 Q1683 19 1676 36 Q1669 53 1669 72 Q1669 90 1676 107 Q1683 124 1695.5 136.5 Q1708 149 1725 156.5 Q1742 164 1761 164 Q1779 164 1796 156.5 Q1813 149 1825.5 136.5 Q1838 124 1845.5 107 Q1853 90 1853 72 Z M2951 -190 Q2914 -190 2914 -229 L2914 -684 L2906 -684 L2566 -213 L2564 -213 L2564 -629 Q2564 -668 2607 -668 L2638 -668 L2638 -680 L2484 -680 L2484 -668 L2509 -668 Q2554 -668 2554 -629 L2554 -190 L2484 -190 L2484 -180 L2634 -180 L2902 -551 L2902 -229 Q2902 -190 2865 -190 L2832 -190 L2832 -180 L2984 -180 L2984 -190 L2951 -190 Z M3420 -190 Q3392 -190 3377 -229 L3262 -485 L3262 -668 L3336 -668 L3336 -680 L3115 -680 L3115 -668 L3191 -668 L3191 -496 L3058 -190 L2992 -190 L2992 -180 L3199 -180 L3199 -190 L3140 -190 L3258 -467 L3346 -266 Q3365 -228 3365 -211 Q3365 -190 3332 -190 L3305 -190 L3305 -180 L3451 -180 L3451 -190 L3420 -190 Z M3052 72 Q3052 53 3044.5 36 Q3037 19 3024.5 6.5 Q3012 -6 2995 -13 Q2978 -20 2959 -20 Q2941 -20 2924 -13 Q2907 -6 2894.5 6.5 Q2882 19 2874.5 36 Q2867 53 2867 72 Q2867 90 2874.5 107 Q2882 124 2894.5 136.5 Q2907 149 2924 156.5 Q2941 164 2959 164 Q2978 164 2995 156.5 Q3012 149 3024.5 136.5 Q3037 124 3044.5 107 Q3052 90 3052 72 Z M3115 936 Q3115 775 2974 674 Q2837 573 2626 573 Q2564 573 2515 574.5 Q2466 576 2431 580 L2431 33 L2609 33 L2609 0 L2001 0 L2001 33 L2146 33 L2146 1243 L2001 1243 L2001 1278 L2648 1278 Q3115 1278 3115 936 Z " />
<glyph glyph-name="hyphenwin" unicode="&#xad;" horiz-adv-x="786" d="M102 424 L102 672 L684 672 L684 424 L102 424 Z " />
<glyph glyph-name="percent" unicode="&#x25;" horiz-adv-x="1423" d="M129 711 L129 1032 L442 1032 L442 711 L129 711 Z M569 0 L330 0 L877 1059 L1116 1059 L569 0 Z M981 27 L981 348 L1296 348 L1296 27 L981 27 Z " />
<glyph glyph-name="exclam" unicode="&#x21;" horiz-adv-x="621" d="M154 27 L154 348 L467 348 L467 27 L154 27 Z M162 532 L162 1276 L461 1276 L461 532 L162 532 Z " />
<glyph glyph-name="Euro" unicode="&#x20ac;" horiz-adv-x="1147" d="M1057 63 Q976 21 871 1.5 Q766 -18 633 -18 Q517 -18 421 17.5 Q325 53 250 125 Q102 267 102 473 L102 805 Q102 1009 250 1151 Q325 1223 421 1258.5 Q517 1294 633 1294 Q843 1294 1042 1210 L969 999 Q894 1028 826.5 1043.5 Q759 1059 696 1059 Q578 1059 489 983 Q399 905 399 807 L399 764 L991 764 L991 526 L399 526 L399 463 Q399 362 489 287 Q581 215 696 215 Q765 215 837.5 230 Q910 245 985 274 L1057 63 Z " />
<glyph glyph-name="quotedbl" unicode="&#x22;" horiz-adv-x="915" d="M129 983 L129 1507 L362 1507 L362 983 L129 983 Z M553 983 L553 1507 L786 1507 L786 983 L553 983 Z " />
<glyph glyph-name="numbersign" unicode="&#x23;" horiz-adv-x="1266" d="M915 840 L915 596 L725 596 L725 840 L543 840 L543 596 L350 596 L350 840 L125 840 L125 1036 L350 1036 L350 1280 L543 1280 L543 1036 L725 1036 L725 1280 L915 1280 L915 1036 L1143 1036 L1143 840 L915 840 Z " />
<glyph glyph-name="dollar" unicode="&#x24;" horiz-adv-x="1145" d="M1081 389 Q1081 249 989 139 Q891 22 717 -8 L717 -166 L420 -166 L420 -4 Q223 23 78 100 L154 311 Q256 263 352 239 Q448 215 541 215 Q786 215 786 367 Q786 440 709 479 Q641 514 547 514 Q319 514 190 631 Q78 734 78 895 Q78 1037 162 1139 Q207 1193 271 1229 Q335 1265 420 1282 L420 1438 L717 1438 L717 1286 Q808 1274 882 1252.5 Q956 1231 1016 1200 L942 991 Q788 1059 625 1059 Q371 1059 371 922 Q371 799 598 799 Q814 799 944 696 Q1081 590 1081 389 Z " />
</font>
</svg>
